<?xml version="1.0" encoding="UTF-8"?>
<!DOCTYPE svg PUBLIC "-//W3C//DTD SVG 1.1//EN" "http://www.w3.org/Graphics/SVG/1.1/DTD/svg11.dtd">
<svg version="1.1" xmlns="http://www.w3.org/2000/svg" xmlns:xlink="http://www.w3.org/1999/xlink" x="0" y="0" width="371" height="463" viewBox="0, 0, 371, 463">
  <defs>
    <radialGradient id="Gradient_1" gradientUnits="userSpaceOnUse" cx="-120.5" cy="563.5" r="1">
      <stop offset="0" stop-color="#EB968C"/>
      <stop offset="1" stop-color="#F5C2A6"/>
    </radialGradient>
    <radialGradient id="Gradient_2" gradientUnits="userSpaceOnUse" cx="-120.5" cy="563.5" r="1">
      <stop offset="0" stop-color="#EB968C"/>
      <stop offset="1" stop-color="#F5C2A6"/>
    </radialGradient>
  </defs>
  <g id="Layer_1">
    <path d="M208.425,328.712 C224.05,327.149 249.073,331.837 285.026,359.204 C303.995,373.61 312.394,379.517 320.987,396.712 C329.597,413.923 314.386,422.126 290.925,413.517 C273.542,407.149 235.011,388.634 223.269,383.157 C211.55,377.688 208.425,328.712 208.425,328.712" fill="#E77A6B"/>
    <path d="M208.425,328.712 L208.777,332.239 C210.369,332.08 212.071,331.988 213.886,331.988 C221.287,331.99 230.61,333.481 242.061,337.981 C253.509,342.48 267.078,349.996 282.879,362.024 L282.882,362.027 C292.389,369.242 299.136,374.269 304.418,379.445 C307.064,382.037 309.362,384.667 311.529,387.688 C313.695,390.709 315.734,394.13 317.816,398.296 C319.298,401.254 319.881,403.727 319.876,405.609 C319.874,406.917 319.615,407.945 319.179,408.818 C318.848,409.474 318.41,410.053 317.822,410.592 C316.945,411.394 315.709,412.104 314.062,412.614 C312.418,413.123 310.375,413.422 307.997,413.421 C303.666,413.425 298.242,412.429 292.146,410.188 C287.917,408.64 282.29,406.308 276.086,403.606 C266.775,399.553 256.146,394.665 246.751,390.279 C237.353,385.891 229.195,382.01 224.767,379.944 C224.482,379.813 224.102,379.559 223.663,379.123 C222.835,378.316 221.855,376.877 220.94,374.981 C219.321,371.664 217.871,367.009 216.698,361.981 C214.928,354.429 213.732,346.013 212.993,339.521 C212.622,336.274 212.364,333.504 212.198,331.552 C212.116,330.576 212.056,329.804 212.018,329.279 C211.999,329.017 211.984,328.815 211.975,328.682 C211.966,328.548 211.962,328.486 211.962,328.486 L208.425,328.712 L208.777,332.239 L208.425,328.712 L204.887,328.937 C204.893,329.01 205.676,341.335 207.959,354.49 C209.106,361.076 210.616,367.86 212.672,373.55 C213.706,376.398 214.871,378.977 216.291,381.175 C217.004,382.273 217.783,383.279 218.678,384.165 C219.572,385.048 220.589,385.817 221.769,386.369 C227.611,389.094 240.202,395.102 253.499,401.223 C260.15,404.284 266.982,407.375 273.256,410.107 C279.533,412.839 285.24,415.209 289.706,416.845 C296.432,419.31 302.603,420.507 307.997,420.511 C310.63,420.51 313.082,420.223 315.325,419.626 C317.006,419.177 318.572,418.553 319.99,417.732 C322.114,416.506 323.909,414.809 325.128,412.713 C326.354,410.621 326.971,408.172 326.966,405.609 C326.961,402.304 325.996,398.808 324.158,395.126 C321.943,390.695 319.709,386.93 317.291,383.557 C313.665,378.495 309.633,374.353 304.788,370.183 C299.938,366.007 294.271,361.775 287.17,356.381 L287.173,356.383 C270.95,344.034 256.83,336.169 244.655,331.383 C232.483,326.597 222.248,324.897 213.886,324.899 C211.833,324.899 209.895,325.002 208.072,325.185 C206.177,325.374 204.765,327.037 204.887,328.937 L208.425,328.712" fill="#E77A6B"/>
    <path d="M153.761,328.712 C138.112,327.149 113.112,331.837 77.159,359.204 C58.19,373.61 50.183,376.399 41.589,393.587 C32.995,410.782 41.979,420.938 63.097,415.852 C78.722,412.095 127.175,386.845 138.894,381.376 C150.636,375.907 153.761,328.712 153.761,328.712" fill="#E77A6B"/>
    <path d="M153.761,328.712 L154.113,325.185 C152.287,325.002 150.346,324.899 148.292,324.899 C139.924,324.897 129.69,326.597 117.521,331.383 C105.349,336.169 91.234,344.034 75.012,356.383 L75.015,356.381 C65.64,363.508 58.923,367.771 53.183,372.655 C50.321,375.095 47.725,377.698 45.305,380.814 C42.884,383.931 40.646,387.543 38.418,392.001 C36.062,396.728 34.816,401.133 34.808,405.211 C34.807,407.491 35.213,409.672 36.077,411.646 C36.722,413.125 37.625,414.477 38.744,415.634 C40.425,417.376 42.57,418.661 44.999,419.487 C47.432,420.316 50.157,420.708 53.149,420.709 C56.415,420.708 60.006,420.241 63.926,419.299 C66.109,418.772 68.673,417.927 71.598,416.837 C76.707,414.931 82.89,412.268 89.491,409.261 C99.388,404.751 110.209,399.471 119.521,394.868 C124.176,392.567 128.453,390.436 132.04,388.659 C135.625,386.883 138.53,385.457 140.393,384.588 L140.39,384.589 C141.554,384.046 142.567,383.294 143.46,382.431 C145.132,380.804 146.435,378.781 147.589,376.491 C149.593,372.483 151.121,367.594 152.378,362.432 C154.253,354.698 155.471,346.37 156.234,339.938 C156.995,333.51 157.295,328.99 157.298,328.946 C157.424,327.035 156.018,325.374 154.113,325.185 L153.761,328.712 L150.223,328.477 L150.215,328.599 C150.125,329.908 149.256,341.63 147.031,353.513 C145.924,359.447 144.464,365.429 142.679,370.048 C141.792,372.354 140.82,374.314 139.862,375.713 C139.385,376.414 138.914,376.972 138.49,377.374 C138.064,377.78 137.691,378.026 137.397,378.162 L137.394,378.164 C134.379,379.571 129.165,382.17 122.727,385.366 C113.081,390.156 100.732,396.267 89.369,401.516 C83.689,404.14 78.256,406.548 73.554,408.46 C68.864,410.372 64.861,411.787 62.268,412.406 C58.791,413.243 55.732,413.62 53.149,413.62 C51.045,413.62 49.261,413.369 47.815,412.944 C46.729,412.626 45.834,412.212 45.104,411.739 C44.01,411.022 43.272,410.194 42.74,409.161 C42.216,408.127 41.9,406.844 41.898,405.211 C41.89,402.631 42.742,399.196 44.76,395.171 C46.828,391.036 48.814,387.854 50.904,385.164 C54.038,381.135 57.439,378.139 61.972,374.709 C66.495,371.289 72.112,367.487 79.303,362.027 L79.306,362.024 C95.107,349.996 108.67,342.48 120.115,337.981 C131.563,333.481 140.884,331.99 148.292,331.988 C150.109,331.988 151.813,332.08 153.408,332.239 L153.761,328.712 L150.223,328.477 L153.761,328.712" fill="#E77A6B"/>
    <path d="M114.425,451.157 C114.425,451.157 111.339,430.173 129.05,378.048 C142.136,339.548 160.3,329.087 184.269,330.126 C215.534,331.477 234.151,361.977 241.862,391.876 C249.894,423.017 253.526,451.157 253.526,451.157 C253.526,451.157 221.784,458.306 175.925,457.267 C130.089,456.212 114.425,451.157 114.425,451.157" fill="#E77A6B"/>
    <path d="M114.425,451.157 L117.932,450.641 L117.903,450.645 L117.932,450.642 L117.932,450.641 L117.903,450.645 L117.932,450.642 C117.912,450.488 117.763,449.24 117.763,446.777 C117.762,438.702 119.369,417.551 132.406,379.188 C135.472,370.166 138.8,362.79 142.358,356.836 C147.705,347.896 153.509,342.184 159.842,338.625 C163.015,336.846 166.341,335.598 169.878,334.785 C173.415,333.973 177.166,333.601 181.152,333.601 C182.126,333.601 183.112,333.623 184.11,333.667 L184.115,333.667 C191.37,333.985 197.818,335.968 203.638,339.231 C212.355,344.12 219.657,351.972 225.477,361.415 C231.297,370.849 235.615,381.837 238.43,392.761 C242.414,408.207 245.314,422.944 247.214,433.805 C248.164,439.235 248.865,443.697 249.327,446.796 C249.558,448.346 249.729,449.555 249.843,450.373 C249.9,450.783 249.942,451.095 249.97,451.303 C249.998,451.511 250.01,451.61 250.01,451.611 L253.526,451.157 L252.748,447.699 L252.736,447.701 C252.073,447.85 224.947,453.826 185.046,453.825 C182.1,453.825 179.084,453.791 176.004,453.722 C153.209,453.198 137.974,451.68 128.494,450.308 C123.754,449.622 120.453,448.973 118.365,448.504 C117.321,448.27 116.58,448.081 116.114,447.955 C115.881,447.892 115.717,447.844 115.618,447.815 L115.518,447.785 L115.504,447.78 L115.038,449.253 L115.513,447.783 L115.504,447.78 L115.038,449.253 L115.513,447.783 L114.425,451.157 L117.932,450.641 L114.425,451.157 L113.336,454.531 C113.784,454.672 129.766,459.748 175.843,460.81 C178.978,460.881 182.047,460.914 185.046,460.914 C226.297,460.913 254.121,454.655 254.305,454.615 C256.089,454.213 257.276,452.517 257.042,450.703 C257.029,450.617 253.387,422.375 245.294,390.99 C241.333,375.66 234.607,360.13 224.631,348.038 C219.641,341.998 213.82,336.818 207.109,333.049 C200.403,329.279 192.8,326.942 184.421,326.584 L184.426,326.584 C183.323,326.535 182.232,326.511 181.152,326.511 C175.251,326.511 169.586,327.247 164.204,329.009 C160.169,330.329 156.302,332.227 152.653,334.78 C147.176,338.611 142.211,343.895 137.744,350.827 C133.274,357.762 129.283,366.349 125.693,376.907 C112.461,415.851 110.674,437.759 110.674,446.777 C110.674,449.919 110.891,451.494 110.917,451.673 C111.113,453.004 112.055,454.117 113.336,454.531 L114.425,451.157" fill="#E77A6B"/>
    <path d="M200.011,332.72 C200.011,332.72 219.714,346.79 198.62,358.517 C177.511,370.235 138.425,356.165 162.487,332.72 L200.011,332.72" fill="#E4B29E"/>
    <path d="M180.675,56.72 C131.12,39.376 76.065,65.36 45.769,117.415 C15.495,169.446 30.636,220.227 43.034,251.196 C55.401,282.157 321.3,308.423 343.112,210.298 C363.776,117.415 294.167,61.509 241.261,53.001 C202.706,46.813 180.675,56.72 180.675,56.72" fill="#52422B"/>
    <path d="M180.675,56.72 L181.846,53.374 C171.118,49.618 160.125,47.82 149.185,47.82 C128.455,47.82 107.937,54.267 89.57,65.955 C71.199,77.645 54.959,94.577 42.705,115.632 C29.273,138.702 24.525,161.66 24.532,182.717 C24.538,210.36 32.637,234.753 39.743,252.514 L39.742,252.511 C40.292,253.883 41.112,255.117 42.109,256.253 C43.986,258.38 46.494,260.216 49.569,261.965 C54.949,265.009 62.12,267.755 70.781,270.256 C83.764,273.996 100.078,277.133 118.303,279.351 C136.525,281.567 156.648,282.856 177.191,282.856 C214.716,282.847 253.614,278.579 284.932,267.62 C300.59,262.13 314.377,254.961 325.115,245.664 C330.481,241.014 335.08,235.827 338.721,230.063 C342.363,224.3 345.041,217.96 346.572,211.067 C349.178,199.358 350.384,188.191 350.383,177.599 C350.385,158.803 346.58,141.825 340.118,126.863 C330.422,104.414 314.788,86.521 297.146,73.528 C279.495,60.535 259.839,52.404 241.823,49.501 C232.458,47.998 224.029,47.422 216.616,47.422 C192.875,47.422 179.581,53.324 179.221,53.487 L180.675,56.72 L181.846,53.374 L180.675,56.72 L182.128,59.953 L181.47,58.489 L182.121,59.956 L182.128,59.953 L181.47,58.489 L182.121,59.956 C182.155,59.942 194.412,54.512 216.616,54.512 C223.662,54.512 231.712,55.059 240.699,56.501 C251.871,58.296 263.927,62.312 275.679,68.453 C293.314,77.664 310.251,91.642 322.732,109.941 C335.214,128.249 343.287,150.845 343.294,177.599 C343.293,187.652 342.15,198.298 339.652,209.528 C338.297,215.615 335.954,221.166 332.727,226.276 C327.084,235.211 318.692,242.813 308.146,249.18 C292.338,258.732 271.729,265.43 249.007,269.679 C226.285,273.936 201.458,275.768 177.191,275.767 C144.287,275.769 112.392,272.398 88.171,267.253 C76.067,264.686 65.873,261.664 58.538,258.486 C54.873,256.903 51.928,255.276 49.861,253.741 C48.828,252.977 48.017,252.238 47.435,251.575 C46.852,250.912 46.504,250.331 46.326,249.881 L46.325,249.878 C39.356,232.486 31.617,208.964 31.622,182.717 C31.63,162.709 36.079,141.131 48.832,119.198 C60.547,99.068 76.025,82.975 93.375,71.936 C110.73,60.896 129.935,54.91 149.185,54.91 C159.35,54.911 169.534,56.577 179.504,60.065 C180.359,60.364 181.302,60.324 182.128,59.953 L180.675,56.72" fill="#52422B"/>
    <path d="M75.3,215.352 C68.175,206.009 58.034,200.384 48.136,200.384 C40.636,200.384 33.644,203.587 27.979,209.61 C23.995,213.829 18.8,220.47 16.69,228.017 C14.128,237.071 15.948,246.626 21.808,254.892 C29.581,265.892 43.37,273.274 56.12,273.274 C69.815,273.274 79.737,265.017 83.37,250.485 C85.925,238.306 82.995,225.47 75.3,215.352" fill="#F5C2A6"/>
    <path d="M299.011,215.352 C306.144,206.009 316.3,200.384 326.183,200.384 C333.683,200.384 340.651,203.587 346.315,209.61 C350.323,213.829 355.495,220.47 357.628,228.017 C360.183,237.071 358.347,246.626 352.487,254.892 C344.737,265.892 330.948,273.274 318.175,273.274 C304.479,273.274 294.581,265.017 290.948,250.485 C288.37,238.306 291.315,225.47 299.011,215.352" fill="#F5C2A6"/>
    <path d="M157.292,102.782 C189.87,95.657 267.394,105.04 301.808,147.751 C336.237,190.454 338.995,285.97 256.394,324.204 C173.776,362.423 76.104,323.149 56.12,274.204 C36.144,225.298 44.401,127.501 157.292,102.782" fill="#F5C2A6"/>
    <path d="M235.026,259.79 C251.784,297.798 306.183,274.829 292.667,243.235 C290.401,237.931 286.573,232.681 282.745,229.704 C264.011,215.102 241.339,227.063 235.909,244.056 C234.401,248.735 233.854,255.024 235.026,259.79" fill="url(#Gradient_1)"/>
    <path d="M68.019,259.79 C84.753,297.798 139.151,274.829 125.636,243.235 C123.386,237.931 119.558,232.681 115.714,229.704 C97.003,215.102 74.308,227.063 68.878,244.056 C67.37,248.735 66.823,255.024 68.019,259.79" fill="url(#Gradient_2)"/>
    <path d="M173.388,249.929 C174.307,247.245 176.546,240.349 180.565,241.195 C183.981,241.915 186.199,246.015 187.544,248.857 C189.742,253.505 196.618,249.454 194.431,244.832 C191.683,239.021 187.112,234.025 180.501,233.171 C172.383,232.122 167.804,241.656 165.696,247.808 C164.024,252.687 171.73,254.765 173.388,249.929" fill="#2D2118"/>
    <path d="M191.3,114.142 C191.3,114.142 283.839,144.649 313.839,212.188 C313.839,212.188 337.862,192.181 317.175,141.04 C306.222,113.97 254.948,95.095 221.315,96.134 C203.956,96.681 191.3,114.142 191.3,114.142" fill="#52422B"/>
    <path d="M191.3,114.142 L190.189,117.508 L190.242,117.525 C191.487,117.939 214.514,125.755 240.747,141.63 C253.863,149.564 267.777,159.51 280.174,171.504 C292.576,183.499 303.45,197.529 310.599,213.627 C311.051,214.645 311.949,215.388 313.034,215.641 C314.118,215.894 315.252,215.624 316.107,214.912 C316.371,214.692 319.62,211.924 322.817,206.082 C326.016,200.248 329.127,191.332 329.122,179.059 C329.123,168.489 326.83,155.455 320.461,139.711 C317.484,132.376 312.016,125.873 305.099,120.162 C294.707,111.604 280.961,104.771 266.555,99.998 C252.145,95.238 237.092,92.553 224.003,92.548 C223.061,92.548 222.127,92.561 221.203,92.591 C216.279,92.746 211.757,94.097 207.788,95.973 C201.83,98.794 197.063,102.783 193.73,106.064 C190.401,109.35 188.513,111.947 188.429,112.061 C187.769,112.972 187.581,114.161 187.926,115.231 C188.272,116.302 189.12,117.155 190.189,117.508 L191.3,114.142 L194.17,116.222 L192.555,115.051 L194.167,116.226 L194.17,116.222 L192.555,115.051 L194.167,116.226 C194.167,116.226 194.211,116.165 194.303,116.045 C194.984,115.143 198.249,111.034 203.135,107.203 C205.576,105.285 208.417,103.439 211.508,102.066 C214.603,100.69 217.933,99.787 221.427,99.677 C222.271,99.65 223.13,99.637 224.003,99.637 C232.081,99.636 241.203,100.76 250.456,102.865 C264.337,106.017 278.522,111.383 290.052,118.278 C295.817,121.722 300.916,125.545 304.993,129.613 C309.073,133.682 312.117,137.984 313.889,142.37 C319.97,157.408 322.031,169.518 322.032,179.059 C322.026,190.139 319.269,197.787 316.598,202.679 C315.261,205.123 313.939,206.873 312.983,207.986 C312.505,208.543 312.119,208.94 311.868,209.185 C311.743,209.307 311.652,209.391 311.6,209.437 L311.553,209.478 L313.069,211.265 L311.57,209.465 L311.553,209.478 L313.069,211.265 L311.57,209.465 L313.839,212.188 L317.078,210.749 C309.34,193.334 297.63,178.413 284.488,165.816 C264.768,146.924 241.804,133.218 223.747,124.185 C205.688,115.157 192.528,110.815 192.41,110.775 L191.3,114.142 L194.17,116.222 L191.3,114.142" fill="#52422B"/>
    <path d="M228.815,97.626 C228.815,97.626 221.315,174.157 167.276,184.657 L165.792,153.149 C165.792,153.149 154.519,185.438 121.511,189.923 L128.253,153.149 C128.253,153.149 90.519,200.235 51.729,207.181 C51.729,207.181 45.729,169.673 74.245,133.657 C102.745,97.626 195.792,73.626 228.815,97.626" fill="#52422B"/>
    <path d="M228.815,97.626 L225.287,97.28 L225.284,97.316 C225.193,98.268 223.122,117.154 214.646,136.758 C210.417,146.562 204.598,156.523 196.76,164.559 C192.841,168.579 188.421,172.123 183.429,174.967 C178.434,177.811 172.867,179.959 166.6,181.177 L167.276,184.657 L170.817,184.49 L169.333,152.982 C169.252,151.283 167.986,149.886 166.302,149.641 C164.618,149.396 163.006,150.374 162.445,151.981 C162.363,152.229 159.54,159.978 152.957,168.015 C149.667,172.037 145.451,176.13 140.19,179.461 C134.925,182.792 128.626,185.376 121.033,186.41 L121.511,189.923 L124.997,190.562 L131.74,153.789 C132.033,152.188 131.206,150.601 129.726,149.925 C128.246,149.249 126.504,149.663 125.487,150.932 L125.467,150.957 C124.974,151.571 115.499,163.232 101.526,175.489 C94.543,181.618 86.437,187.892 77.818,193.012 C69.199,198.138 60.072,202.091 51.104,203.691 L51.729,207.181 L55.23,206.62 L54.063,206.807 L55.23,206.625 L55.23,206.62 L54.063,206.807 L55.23,206.625 C55.223,206.578 54.747,203.499 54.748,198.323 C54.747,191.972 55.463,182.47 58.605,171.511 C61.749,160.549 67.306,148.133 77.024,135.858 C81.823,129.782 88.763,123.89 97.121,118.547 C109.656,110.524 125.357,103.728 141.664,98.978 C157.968,94.222 174.89,91.507 189.827,91.51 C197.54,91.509 204.72,92.233 210.99,93.731 C217.264,95.225 222.61,97.494 226.731,100.493 L228.815,97.626 L225.287,97.28 L228.815,97.626 L230.899,94.758 C225.799,91.056 219.584,88.495 212.636,86.834 C205.684,85.177 197.981,84.422 189.827,84.421 C168.784,84.43 144.698,89.447 123.103,97.765 C112.308,101.927 102.141,106.92 93.3,112.575 C84.461,118.234 76.938,124.546 71.465,131.458 C61.113,144.529 55.149,157.831 51.79,169.557 C48.428,181.287 47.658,191.443 47.658,198.323 C47.658,204.113 48.205,207.587 48.229,207.741 C48.378,208.676 48.905,209.522 49.677,210.071 C50.449,210.619 51.422,210.837 52.354,210.67 C62.639,208.823 72.627,204.387 81.873,198.848 C95.736,190.532 107.957,179.697 116.769,170.925 C125.576,162.154 130.959,155.441 131.019,155.366 L128.253,153.149 L124.766,152.51 L118.024,189.283 C117.819,190.402 118.161,191.548 118.947,192.371 C119.732,193.193 120.861,193.588 121.988,193.435 C130.779,192.244 138.188,189.176 144.27,185.268 C153.401,179.401 159.568,171.705 163.484,165.491 C167.399,159.269 169.073,154.499 169.139,154.318 L165.792,153.149 L162.251,153.316 L163.735,184.824 C163.783,185.849 164.28,186.811 165.086,187.445 C165.893,188.078 166.945,188.332 167.952,188.137 C175.096,186.75 181.507,184.258 187.205,180.974 C197.185,175.224 204.964,167.082 211.02,158.211 C220.102,144.893 225.377,129.9 228.443,118.206 C231.502,106.512 232.329,98.105 232.343,97.972 C232.465,96.723 231.914,95.496 230.899,94.758 L228.815,97.626" fill="#52422B"/>
    <path d="M214.577,166.448 C214.683,166.61 216.216,169.089 218.981,171.689 C220.368,172.987 222.07,174.322 224.119,175.371 C226.161,176.416 228.585,177.173 231.272,177.173 C233.738,177.179 236.378,176.513 238.932,175.058 C241.494,173.604 243.982,171.402 246.418,168.34 C247.636,166.807 247.381,164.577 245.849,163.359 C244.317,162.141 242.087,162.395 240.869,163.928 C238.867,166.447 237.023,167.992 235.436,168.89 C233.841,169.787 232.514,170.077 231.272,170.083 C229.926,170.083 228.623,169.709 227.344,169.057 C225.432,168.09 223.663,166.473 222.442,165.088 C221.829,164.398 221.349,163.773 221.032,163.336 C220.874,163.117 220.756,162.946 220.684,162.836 L220.607,162.72 L220.595,162.701 L219.456,163.42 L220.601,162.709 L220.595,162.701 L219.456,163.42 L220.601,162.709 C219.568,161.046 217.382,160.535 215.719,161.567 C214.056,162.6 213.544,164.785 214.577,166.449" fill="#2D2118"/>
    <path d="M253.494,213.772 C253.169,213.659 249.886,212.465 245.045,212.457 C243.056,212.457 240.803,212.665 238.408,213.261 C234.82,214.151 230.912,215.947 227.283,219.11 C223.648,222.268 220.325,226.749 217.681,232.845 C216.961,234.5 217.317,236.424 218.582,237.713 C219.846,239.002 221.762,239.394 223.432,238.707 L222.588,236.659 L223.425,238.71 L223.432,238.707 L222.588,236.659 L223.425,238.71 C223.425,238.71 223.538,238.664 223.759,238.581 C224.533,238.289 226.601,237.555 229.368,236.905 C232.133,236.253 235.598,235.693 239.125,235.695 C242.587,235.693 246.075,236.234 249.113,237.6 C251.347,238.6 253.968,237.601 254.969,235.367 C255.969,233.133 254.97,230.512 252.736,229.512 C248.203,227.487 243.475,226.836 239.125,226.833 C233.964,226.837 229.283,227.751 225.839,228.651 C222.398,229.555 220.195,230.457 220.058,230.513 L221.745,234.61 L225.809,236.375 C227.281,232.988 228.913,230.391 230.579,228.387 C233.084,225.384 235.652,223.687 238.119,222.661 C240.584,221.642 242.986,221.319 245.045,221.319 C246.71,221.318 248.138,221.534 249.11,221.742 C249.596,221.846 249.967,221.947 250.197,222.016 C250.312,222.05 250.391,222.075 250.431,222.089 L250.433,222.089 C252.729,222.934 255.276,221.758 256.122,219.461 C256.967,217.165 255.791,214.618 253.495,213.772" fill="#2D2118"/>
    <path d="M114.057,222.089 L114.059,222.089 C114.342,221.99 116.531,221.314 119.445,221.319 C120.815,221.319 122.344,221.463 123.937,221.86 C126.329,222.462 128.86,223.602 131.39,225.796 C133.914,227.995 136.469,231.293 138.681,236.376 L142.745,234.61 L144.434,230.514 C144.296,230.457 142.096,229.555 138.657,228.652 C135.217,227.751 130.539,226.837 125.38,226.833 C121.031,226.836 116.302,227.487 111.77,229.511 C109.536,230.511 108.537,233.133 109.537,235.367 C110.537,237.6 113.158,238.6 115.392,237.6 C118.431,236.234 121.919,235.693 125.38,235.695 C129.473,235.692 133.478,236.451 136.406,237.223 C137.871,237.607 139.069,237.992 139.882,238.274 C140.289,238.415 140.599,238.53 140.8,238.606 C140.9,238.645 140.972,238.673 141.016,238.69 L141.058,238.707 L141.063,238.709 L141.953,236.53 L141.056,238.706 L141.063,238.709 L141.953,236.53 L141.056,238.706 C142.725,239.394 144.643,239.002 145.907,237.714 C147.172,236.425 147.529,234.5 146.809,232.844 C145.043,228.779 142.983,225.436 140.724,222.72 C137.34,218.641 133.49,216.006 129.753,214.47 C126.014,212.926 122.424,212.456 119.445,212.457 C114.604,212.465 111.32,213.659 110.996,213.772 C108.699,214.617 107.522,217.165 108.368,219.461 C109.213,221.758 111.76,222.934 114.057,222.089" fill="#2D2118"/>
    <path d="M136.104,289.829 C139.894,275.298 157.214,262.548 181.433,262.548 C205.675,262.548 235.167,278.11 229.894,301.063 C223.644,328.345 199.753,310.102 181.808,310.102 C163.815,310.102 157.995,317.923 146.261,315.501 C134.542,313.11 132.979,301.876 136.104,289.829" fill="#C04841"/>
    <path d="M136.104,289.829 L139.13,290.618 C139.958,287.441 141.543,284.3 143.842,281.363 C147.287,276.958 152.341,273.026 158.712,270.206 C165.083,267.386 172.762,265.674 181.433,265.674 C186.704,265.673 192.3,266.457 197.688,267.936 C205.774,270.146 213.378,273.941 218.785,278.778 C221.493,281.193 223.652,283.855 225.12,286.685 C226.587,289.52 227.382,292.51 227.385,295.734 C227.385,297.22 227.214,298.759 226.846,300.365 C226.227,303.071 225.437,305.207 224.553,306.86 C223.215,309.344 221.738,310.742 220.07,311.646 C218.4,312.54 216.414,312.946 214.031,312.948 C211.915,312.949 209.521,312.616 206.969,312.081 C203.138,311.281 198.962,310.034 194.709,308.96 C190.452,307.892 186.111,306.981 181.808,306.976 C173.628,306.967 167.676,308.548 162.883,310.05 C160.486,310.799 158.381,311.516 156.417,312.023 C154.448,312.532 152.633,312.838 150.705,312.839 C149.509,312.839 148.263,312.721 146.892,312.439 L146.886,312.437 C145.118,312.076 143.727,311.501 142.609,310.787 C140.941,309.708 139.821,308.319 139.023,306.489 C138.234,304.664 137.825,302.379 137.827,299.768 C137.826,296.986 138.288,293.853 139.13,290.615 L139.13,290.618 L136.104,289.829 L133.078,289.043 C132.134,292.686 131.576,296.306 131.574,299.768 C131.575,301.932 131.794,304.037 132.298,306.042 C133.049,309.042 134.476,311.846 136.734,314.061 C138.985,316.28 142.013,317.832 145.635,318.564 L145.629,318.562 C147.403,318.929 149.092,319.092 150.705,319.092 C153.312,319.093 155.704,318.666 157.983,318.076 C161.41,317.183 164.603,315.956 168.311,314.98 C172.021,314.001 176.258,313.232 181.808,313.228 C184.07,313.227 186.563,313.563 189.178,314.099 C193.104,314.898 197.292,316.142 201.488,317.214 C205.689,318.28 209.899,319.193 214.031,319.2 C216.089,319.2 218.137,318.966 220.121,318.359 C221.607,317.906 223.053,317.239 224.398,316.327 C226.419,314.96 228.185,313.051 229.606,310.631 C231.031,308.208 232.133,305.281 232.941,301.761 C233.41,299.717 233.638,297.702 233.638,295.734 C233.644,290.026 231.703,284.783 228.535,280.309 C223.771,273.584 216.348,268.443 207.986,264.895 C199.613,261.359 190.261,259.426 181.433,259.421 C168.774,259.422 157.804,262.751 149.424,268.104 C145.234,270.782 141.69,273.967 138.918,277.509 C136.146,281.049 134.146,284.951 133.079,289.04 L133.078,289.043 L136.104,289.829" fill="#C04841"/>
    <path d="M91.886,337.024 L84.073,361.759 L62.237,353.579 L71.081,326.532 L91.886,337.024" fill="#F5C2A6"/>
    <path d="M91.886,337.024 L88.505,335.956 L81.818,357.128 L66.662,351.451 L73.168,331.555 L90.289,340.189 L91.886,337.024 L88.505,335.956 L91.886,337.024 L93.482,333.859 L72.677,323.367 C71.75,322.899 70.68,322.86 69.721,323.258 C68.761,323.657 68.034,324.443 67.712,325.43 L58.868,352.477 C58.276,354.287 59.211,356.23 60.994,356.898 L82.83,365.078 C83.741,365.419 84.75,365.372 85.625,364.945 C86.501,364.519 87.16,363.754 87.453,362.826 L95.266,338.092 C95.788,336.439 95.03,334.639 93.482,333.859 L91.886,337.024" fill="#F5C2A6"/>
    <path d="M122.136,304.884 C122.136,304.884 127.175,302.704 130.378,307.704 C133.581,312.72 126.104,319.556 119.464,319.243 C112.823,318.899 110.534,309.759 122.136,304.884" fill="#F5C2A6"/>
    <path d="M122.136,304.884 L123.545,308.136 L122.785,306.381 L123.487,308.16 L123.545,308.136 L122.785,306.381 L123.487,308.16 L123.488,308.16 C123.527,308.14 124.114,307.948 124.72,307.955 C125.152,307.956 125.568,308.03 125.973,308.23 C126.378,308.439 126.839,308.767 127.393,309.616 L127.39,309.612 C127.559,309.89 127.59,310.039 127.598,310.288 C127.601,310.583 127.489,311.081 127.114,311.702 C126.567,312.63 125.442,313.725 124.087,314.49 C122.736,315.269 121.186,315.715 119.906,315.707 C119.813,315.707 119.708,315.705 119.594,315.7 L119.464,319.243 L119.647,315.703 C118.794,315.652 118.298,315.369 117.983,315.061 C117.676,314.742 117.512,314.392 117.503,313.854 C117.506,313.311 117.701,312.502 118.565,311.46 C119.425,310.429 120.98,309.211 123.508,308.152 L123.545,308.136 L122.136,304.884 L120.763,301.615 C117.428,303.018 114.895,304.807 113.131,306.907 C111.372,308.996 110.409,311.441 110.413,313.854 C110.404,316.211 111.35,318.47 112.974,320.079 C114.592,321.7 116.848,322.663 119.28,322.783 L119.334,322.786 C119.513,322.792 119.703,322.796 119.906,322.796 C121.764,322.795 123.554,322.41 125.215,321.777 C127.704,320.82 129.921,319.322 131.649,317.419 C132.51,316.465 133.248,315.401 133.794,314.212 C134.337,313.026 134.687,311.7 134.688,310.288 C134.695,308.768 134.251,307.168 133.365,305.795 L133.363,305.792 C132.205,303.969 130.692,302.649 129.124,301.879 C127.556,301.101 125.999,300.864 124.72,300.865 C122.477,300.878 120.999,301.523 120.726,301.631 L122.136,304.884 L120.763,301.615 L122.136,304.884" fill="#F5C2A6"/>
    <path d="M97.901,275.938 C97.901,275.938 106.979,271.602 114.776,278.032 C122.604,284.454 126.003,299.399 126.003,299.399 L97.901,275.938" fill="#F5C2A6"/>
    <path d="M97.901,275.938 L99.429,279.137 L98.872,277.969 L99.41,279.146 L99.429,279.137 L98.872,277.969 L99.41,279.146 C99.473,279.106 101.936,278.039 104.92,278.053 C106.103,278.053 107.363,278.208 108.638,278.618 C109.914,279.03 111.21,279.688 112.521,280.767 L112.528,280.772 C114.063,282.026 115.539,283.862 116.815,285.939 C118.736,289.052 120.207,292.671 121.159,295.475 C121.637,296.877 121.989,298.077 122.219,298.915 C122.334,299.334 122.418,299.663 122.472,299.881 C122.5,299.99 122.519,300.071 122.531,300.123 L122.544,300.178 L122.547,300.187 L123.626,299.939 L122.546,300.185 L122.547,300.187 L123.626,299.939 L122.546,300.185 L126.003,299.399 L128.275,296.678 L100.173,273.217 L97.901,275.938 L99.429,279.137 L97.901,275.938 L95.629,278.659 L123.731,302.12 C124.898,303.094 126.557,303.216 127.854,302.422 C129.15,301.629 129.796,300.095 129.459,298.613 C129.431,298.495 128.548,294.608 126.613,289.799 C125.643,287.394 124.411,284.754 122.851,282.221 C121.288,279.689 119.404,277.249 117.025,275.291 L117.032,275.297 C115.022,273.637 112.883,272.533 110.807,271.868 C108.729,271.201 106.722,270.963 104.92,270.963 C100.053,270.981 96.655,272.619 96.373,272.74 C95.282,273.261 94.535,274.297 94.384,275.497 C94.233,276.696 94.702,277.884 95.629,278.659 L97.901,275.938" fill="#F5C2A6"/>
    <path d="M103.565,334.36 C112.589,324.61 104.479,320.563 104.479,320.563 C104.479,320.563 108.292,318.798 111.511,315.423 C114.714,312.001 110.3,311.04 113.581,309.86 C116.823,308.665 124.323,306.267 122.526,300.259 C121.315,296.251 107.526,276.188 94.347,276.532 C81.159,276.938 67.198,300.626 67.159,305.579 C66.979,324.923 78.058,340.587 78.058,340.587 C78.058,340.587 96.159,342.313 103.565,334.36" fill="#F5C2A6"/>
    <path d="M103.565,334.36 L106.167,336.768 C107.966,334.822 109.249,332.985 110.105,331.195 C110.959,329.411 111.374,327.652 111.372,326.014 C111.375,324.543 111.036,323.2 110.529,322.096 C109.766,320.432 108.686,319.306 107.815,318.574 C106.937,317.841 106.24,317.482 106.062,317.391 L104.479,320.563 L105.969,323.78 C106.078,323.729 107.164,323.222 108.692,322.248 C110.22,321.273 112.196,319.837 114.076,317.869 L114.099,317.844 C114.782,317.114 115.331,316.348 115.717,315.505 C116.105,314.668 116.3,313.744 116.295,312.923 C116.294,311.851 116.002,311.027 115.857,310.616 C115.82,310.512 115.791,310.433 115.772,310.382 L115.751,310.321 L114.477,310.734 L115.787,310.463 C115.765,310.361 115.751,310.322 115.751,310.321 L114.477,310.734 L115.787,310.463 L113.378,310.961 L115.835,310.961 C115.835,310.731 115.808,310.565 115.787,310.463 L113.378,310.961 L115.835,310.961 L112.992,310.961 L115.582,312.129 C115.766,311.73 115.84,311.277 115.835,310.961 L112.992,310.961 L115.582,312.129 L113.073,310.997 L115.107,312.856 C115.267,312.682 115.448,312.428 115.582,312.129 L113.073,310.997 L115.107,312.856 L113.665,311.538 L114.627,313.253 C114.681,313.221 114.862,313.121 115.107,312.856 L113.665,311.538 L114.627,313.253 L114.395,312.839 L114.605,313.265 L114.627,313.253 L114.395,312.839 L114.605,313.265 C114.605,313.265 114.663,313.238 114.776,313.197 L114.807,313.186 C115.488,312.935 116.492,312.585 117.605,312.123 C119.278,311.42 121.226,310.494 122.984,308.967 C123.859,308.201 124.691,307.263 125.322,306.089 C125.954,304.923 126.35,303.509 126.345,302.028 C126.345,301.103 126.199,300.166 125.923,299.244 L125.92,299.233 C125.769,298.742 125.589,298.311 125.375,297.845 C124.973,296.981 124.441,296.02 123.775,294.936 C121.447,291.165 117.48,285.919 112.51,281.416 C110.022,279.169 107.283,277.111 104.311,275.566 C101.344,274.029 98.106,272.986 94.682,272.982 C94.56,272.982 94.396,272.982 94.191,272.991 L94.347,276.532 L94.237,272.989 C92.066,273.056 89.977,273.597 88.011,274.429 C84.57,275.894 81.456,278.233 78.621,280.934 C74.378,284.994 70.768,289.91 68.131,294.32 C66.814,296.528 65.746,298.603 64.972,300.434 C64.585,301.352 64.27,302.207 64.034,303.026 C63.803,303.854 63.63,304.615 63.614,305.551 L63.614,305.545 C63.613,305.705 63.612,305.871 63.612,306.044 C63.618,316.287 66.506,325.36 69.358,331.907 C72.217,338.454 75.064,342.491 75.163,342.633 C75.763,343.481 76.688,344.017 77.722,344.116 C77.807,344.123 79.569,344.289 82.236,344.289 C85.31,344.286 89.575,344.076 93.927,343.087 C96.104,342.59 98.308,341.897 100.404,340.893 C102.495,339.888 104.492,338.564 106.159,336.776 L106.167,336.768 L103.565,334.36 L100.971,331.944 C100.057,332.928 98.821,333.789 97.336,334.501 C95.114,335.572 92.357,336.279 89.648,336.68 C86.939,337.086 84.282,337.2 82.236,337.2 C81.05,337.2 80.068,337.162 79.393,337.126 C79.056,337.107 78.795,337.089 78.624,337.077 L78.437,337.061 L78.396,337.058 L78.39,337.058 L78.261,338.444 L78.393,337.058 L78.39,337.058 L78.261,338.444 L78.393,337.058 L78.058,340.587 L80.952,338.54 L79.298,339.709 L80.954,338.543 L80.952,338.54 L79.298,339.709 L80.954,338.543 C80.954,338.543 80.917,338.491 80.843,338.38 C80.281,337.552 77.712,333.607 75.314,327.794 C72.91,321.979 70.696,314.31 70.701,306.044 C70.701,305.908 70.702,305.764 70.704,305.612 L70.704,305.607 L70.357,305.604 L70.703,305.634 L70.704,305.607 L70.357,305.604 L70.703,305.634 C70.703,305.607 70.737,305.381 70.827,305.062 C70.993,304.455 71.343,303.511 71.848,302.41 C72.732,300.476 74.086,298.032 75.756,295.511 C78.257,291.725 81.494,287.745 84.882,284.819 C86.572,283.354 88.295,282.157 89.93,281.347 C91.569,280.533 93.095,280.115 94.456,280.075 L94.502,280.073 C94.52,280.072 94.58,280.071 94.682,280.071 C95.868,280.071 97.128,280.296 98.451,280.742 C100.764,281.517 103.247,282.99 105.624,284.87 C109.195,287.682 112.518,291.38 114.975,294.64 C116.205,296.268 117.223,297.789 117.953,299.007 C118.317,299.615 118.61,300.147 118.814,300.559 C119.018,300.963 119.133,301.273 119.133,301.284 L119.13,301.273 C119.228,301.604 119.255,301.846 119.255,302.028 C119.254,302.224 119.227,302.36 119.177,302.507 C119.09,302.756 118.898,303.077 118.495,303.467 C117.902,304.051 116.856,304.695 115.712,305.215 C114.565,305.745 113.362,306.165 112.354,306.534 L112.386,306.523 C112.016,306.656 111.662,306.802 111.296,306.995 C110.758,307.285 110.146,307.683 109.595,308.409 C109.325,308.768 109.091,309.206 108.947,309.662 C108.801,310.116 108.745,310.573 108.746,310.961 C108.75,311.627 108.88,312.084 108.972,312.396 C109.12,312.862 109.206,313.057 109.222,313.122 L109.228,313.14 L110.073,312.923 L109.205,312.923 C109.205,313.041 109.225,313.132 109.228,313.14 L110.073,312.923 L109.205,312.923 L110.066,312.923 L109.269,312.559 C109.258,312.568 109.2,312.759 109.205,312.923 L110.066,312.923 L109.269,312.559 L109.258,312.579 C109.229,312.628 109.134,312.775 108.922,313.001 L108.945,312.976 C107.607,314.383 106.067,315.517 104.884,316.269 C104.292,316.645 103.792,316.928 103.452,317.109 C103.283,317.2 103.153,317.266 103.073,317.306 L102.991,317.346 L102.99,317.347 C101.749,317.921 100.955,319.144 100.935,320.512 C100.915,321.879 101.673,323.124 102.897,323.735 L103.85,321.825 L102.841,323.706 L102.897,323.735 L103.85,321.825 L102.841,323.706 L103.014,323.384 L102.836,323.704 L102.841,323.706 L103.014,323.384 L102.836,323.704 C102.848,323.705 103.332,324 103.681,324.422 C103.859,324.633 104.009,324.864 104.111,325.113 C104.213,325.365 104.28,325.632 104.282,326.014 C104.28,326.479 104.177,327.151 103.707,328.142 C103.238,329.127 102.39,330.412 100.963,331.953 L100.971,331.944 L103.565,334.36" fill="#F5C2A6"/>
    <path d="M83.98,315.024 C84.029,315.091 86.238,318.256 89.375,321.512 C90.949,323.141 92.75,324.797 94.717,326.115 C95.703,326.773 96.733,327.35 97.827,327.778 C98.92,328.205 100.088,328.489 101.326,328.491 C102.434,328.494 103.598,328.245 104.66,327.691 C105.724,327.142 106.661,326.31 107.428,325.282 L107.551,325.102 C107.625,324.984 107.954,324.444 108.281,323.563 C108.606,322.683 108.933,321.452 108.935,319.968 C108.937,318.742 108.7,317.34 108.055,315.929 L108.049,315.916 C106.768,313.152 104.909,310.61 102.864,308.299 C99.792,304.839 96.282,301.904 93.521,299.803 C90.76,297.704 88.75,296.449 88.699,296.417 C87.453,295.64 85.813,296.019 85.036,297.266 C84.259,298.512 84.639,300.151 85.885,300.929 L85.888,300.931 C86.03,301.019 89.421,303.161 93.253,306.398 C95.168,308.015 97.193,309.906 98.97,311.923 C100.749,313.938 102.272,316.085 103.222,318.147 L103.216,318.135 C103.518,318.8 103.616,319.4 103.618,319.968 C103.619,320.648 103.458,321.278 103.295,321.717 C103.214,321.936 103.134,322.105 103.083,322.204 L103.033,322.299 L103.03,322.304 L104.007,322.876 L103.048,322.274 L103.03,322.304 L104.007,322.876 L103.048,322.274 L105.3,323.688 L103.171,322.095 C102.799,322.589 102.483,322.829 102.214,322.97 C101.941,323.108 101.688,323.17 101.326,323.174 C100.928,323.175 100.395,323.075 99.764,322.827 C98.658,322.4 97.3,321.523 95.972,320.416 C93.971,318.76 92.024,316.621 90.613,314.916 C89.906,314.063 89.329,313.317 88.934,312.79 C88.736,312.527 88.583,312.318 88.482,312.178 L88.369,312.021 L88.343,311.984 L88.338,311.977 C87.496,310.773 85.838,310.48 84.635,311.322 C83.432,312.164 83.139,313.821 83.98,315.025" fill="#EC988F"/>
    <path d="M87.682,319.734 L87.683,319.736 C87.726,319.822 88.362,321.144 88.97,323.017 C89.583,324.886 90.15,327.313 90.145,329.505 C90.146,331.222 89.809,332.731 89.089,333.866 C88.306,335.108 88.68,336.749 89.922,337.532 C91.165,338.314 92.806,337.941 93.589,336.699 C95.017,334.419 95.46,331.875 95.462,329.505 C95.455,326.352 94.692,323.39 93.957,321.161 C93.218,318.936 92.486,317.455 92.448,317.376 C91.797,316.06 90.202,315.521 88.886,316.173 C87.57,316.824 87.031,318.418 87.683,319.735" fill="#EC988F"/>
    <path d="M107.237,322.214 C107.382,322.214 108.103,322.209 109.136,322.102 C110.689,321.931 112.931,321.578 115.094,320.471 C116.17,319.91 117.251,319.133 118.1,317.992 C118.952,316.861 119.492,315.343 119.481,313.724 C119.48,312.473 119.192,311.179 118.648,309.837 C118.102,308.493 117.3,307.09 116.207,305.572 C114.345,302.989 112.019,300.397 109.566,297.926 C102.216,290.532 93.697,284.223 93.641,284.178 C92.462,283.303 90.796,283.55 89.922,284.729 C89.047,285.909 89.294,287.574 90.474,288.449 L90.51,288.476 C90.919,288.781 94.679,291.605 99.138,295.483 C101.367,297.421 103.771,299.623 106.011,301.893 C108.251,304.162 110.328,306.505 111.892,308.679 C112.796,309.932 113.379,310.991 113.721,311.835 C114.064,312.681 114.164,313.301 114.164,313.724 C114.161,314.092 114.098,314.321 114.006,314.527 C113.923,314.706 113.808,314.874 113.631,315.055 C113.326,315.371 112.808,315.708 112.153,315.98 C111.176,316.395 109.936,316.651 108.955,316.771 C107.971,316.895 107.244,316.897 107.237,316.897 C105.769,316.897 104.579,318.087 104.579,319.556 C104.579,321.024 105.769,322.214 107.237,322.214" fill="#EC988F"/>
    <path d="M116.526,313.793 C116.684,313.764 119.053,313.475 121.671,312.214 C122.978,311.576 124.374,310.681 125.524,309.312 C126.095,308.628 126.597,307.822 126.948,306.901 C127.3,305.982 127.495,304.954 127.494,303.873 C127.494,302.55 127.209,301.161 126.645,299.72 C126.08,298.277 125.237,296.773 124.083,295.167 C119.568,288.894 114.031,283.923 109.612,280.482 C105.191,277.045 101.88,275.146 101.801,275.1 C100.526,274.37 98.901,274.811 98.172,276.086 C97.442,277.36 97.884,278.985 99.158,279.715 L99.16,279.715 C99.276,279.782 102.423,281.607 106.543,284.832 C110.664,288.053 115.751,292.681 119.766,298.271 C120.716,299.592 121.329,300.725 121.693,301.657 C122.058,302.592 122.177,303.316 122.177,303.873 C122.176,304.331 122.101,304.685 121.98,305.005 C121.769,305.558 121.383,306.055 120.798,306.531 C119.934,307.242 118.646,307.797 117.592,308.111 C117.067,308.271 116.602,308.378 116.283,308.442 C116.123,308.474 115.999,308.495 115.922,308.508 L115.842,308.52 L115.83,308.522 L115.994,309.714 L115.839,308.52 L115.83,308.522 L115.994,309.714 L115.839,308.52 C114.382,308.71 113.356,310.045 113.546,311.501 C113.736,312.957 115.07,313.984 116.527,313.794" fill="#EC988F"/>
    <path d="M71.876,293.081 L71.877,293.078 C71.949,292.958 73.88,289.788 76.93,286.147 C78.453,284.328 80.256,282.392 82.222,280.665 C84.187,278.936 86.318,277.421 88.454,276.411 C92.385,274.541 97.766,273.169 103.013,273.177 C106.422,273.176 109.766,273.745 112.679,275.021 C115.597,276.305 118.094,278.252 120.01,281.18 C122.459,284.932 124.518,288.038 125.898,290.611 C126.589,291.895 127.108,293.043 127.441,294.047 C127.776,295.054 127.923,295.907 127.923,296.65 C127.917,297.545 127.734,298.304 127.257,299.192 C126.777,300.073 125.957,301.077 124.656,302.199 C123.544,303.159 123.421,304.837 124.381,305.949 C125.34,307.061 127.019,307.184 128.131,306.225 C129.769,304.809 131.044,303.348 131.923,301.741 C132.805,300.141 133.247,298.388 133.24,296.65 C133.24,295.202 132.955,293.779 132.487,292.371 C131.782,290.257 130.674,288.15 129.305,285.853 C127.933,283.558 126.289,281.075 124.464,278.275 C121.967,274.436 118.551,271.779 114.81,270.15 C111.064,268.514 107.002,267.861 103.013,267.86 C96.861,267.868 90.86,269.395 86.177,271.606 C83.394,272.927 80.866,274.768 78.606,276.764 C75.22,279.761 72.432,283.124 70.462,285.756 C68.494,288.387 67.352,290.286 67.317,290.343 C66.561,291.602 66.969,293.235 68.228,293.991 C69.486,294.747 71.12,294.34 71.876,293.081" fill="#EC988F"/>
    <path d="M128.027,305.649 L128.35,304.823 L128.019,305.645 L128.027,305.649 L128.35,304.823 L128.019,305.645 C128.06,305.657 129.436,306.239 130.621,307.201 C131.216,307.677 131.753,308.239 132.1,308.8 C132.448,309.369 132.622,309.894 132.626,310.518 C132.623,311.086 132.478,311.804 131.918,312.796 L131.922,312.789 C131.451,313.615 130.723,314.499 129.823,315.33 C128.474,316.578 126.742,317.699 125.034,318.469 C123.333,319.247 121.636,319.651 120.53,319.641 C120.128,319.641 119.812,319.592 119.603,319.531 C119.445,319.485 119.35,319.436 119.295,319.4 L119.16,319.247 C119.117,319.158 119.041,318.944 119.04,318.506 C119.04,318.282 119.061,318.005 119.116,317.678 C119.361,316.23 118.385,314.858 116.938,314.614 C115.49,314.37 114.118,315.345 113.874,316.793 C113.774,317.379 113.723,317.95 113.723,318.506 C113.722,319.461 113.877,320.393 114.235,321.253 C114.501,321.896 114.884,322.492 115.354,322.989 C116.06,323.739 116.938,324.247 117.824,324.544 C118.715,324.845 119.623,324.956 120.53,324.957 C122.005,324.955 123.496,324.661 124.991,324.181 C127.23,323.454 129.479,322.294 131.5,320.819 C133.515,319.339 135.312,317.555 136.536,315.432 L136.541,315.424 C137.478,313.783 137.947,312.106 137.943,310.518 C137.947,308.716 137.346,307.118 136.539,305.871 C135.317,303.99 133.693,302.773 132.392,301.952 C131.085,301.139 130.068,300.739 129.963,300.696 C128.595,300.162 127.053,300.837 126.519,302.205 C125.984,303.573 126.66,305.115 128.028,305.649" fill="#EC988F"/>
    <path d="M55.128,343.048 L97.823,359.485 C97.823,359.485 86.065,396.532 65.651,410.173 C28.409,435.017 23.229,379.915 55.128,343.048" fill="#E77A6B"/>
    <path d="M55.128,343.048 L53.854,346.356 L96.55,362.793 L97.823,359.485 L94.444,358.413 L94.439,358.429 C94.297,358.878 91.325,368.042 85.97,378.629 C83.295,383.921 80.024,389.566 76.258,394.637 C72.495,399.711 68.229,404.193 63.682,407.225 L63.684,407.224 C60.631,409.261 57.869,410.683 55.436,411.58 C53.002,412.478 50.908,412.852 49.152,412.852 C47.217,412.846 45.693,412.42 44.37,411.674 C43.378,411.11 42.489,410.348 41.679,409.346 C40.467,407.848 39.45,405.793 38.751,403.239 C38.051,400.688 37.672,397.655 37.673,394.288 C37.668,387.347 39.282,379.01 42.624,370.481 C45.963,361.947 51.016,353.214 57.808,345.367 L55.128,343.048 L53.854,346.356 L55.128,343.048 L52.447,340.728 C45.093,349.228 39.647,358.637 36.022,367.897 C32.401,377.162 30.588,386.271 30.583,394.288 C30.584,397.748 30.923,401.008 31.631,404.003 C32.693,408.483 34.587,412.421 37.56,415.338 C39.042,416.79 40.795,417.963 42.759,418.751 C44.722,419.541 46.882,419.942 49.152,419.941 C51.908,419.94 54.824,419.363 57.892,418.23 C60.961,417.096 64.193,415.406 67.618,413.122 L67.621,413.12 C73.208,409.38 78.004,404.211 82.144,398.601 C88.344,390.182 93.063,380.726 96.277,373.339 C99.487,365.955 101.175,360.641 101.202,360.558 C101.768,358.773 100.844,356.849 99.097,356.177 L56.401,339.739 C55.002,339.201 53.428,339.594 52.447,340.728 L55.128,343.048" fill="#E77A6B"/>
    <path d="M270.323,337.024 L278.112,361.759 L299.948,353.579 L291.081,326.532 L270.323,337.024" fill="#F5C2A6"/>
    <path d="M270.323,337.024 L266.942,338.089 L274.731,362.823 C275.023,363.752 275.683,364.518 276.559,364.945 C277.434,365.372 278.443,365.419 279.355,365.078 L301.191,356.898 C302.974,356.23 303.909,354.283 303.316,352.475 L294.449,325.428 C294.125,324.44 293.398,323.655 292.438,323.257 C291.479,322.86 290.409,322.899 289.482,323.368 L268.724,333.86 C267.177,334.642 266.421,336.435 266.942,338.089 L270.323,337.024 L271.922,340.188 L288.998,331.557 L295.52,351.452 L280.37,357.127 L273.704,335.959 L270.323,337.024 L271.922,340.188 L270.323,337.024" fill="#F5C2A6"/>
    <path d="M240.05,304.884 C240.05,304.884 235.011,302.704 231.808,307.704 C228.604,312.72 236.081,319.556 242.722,319.243 C249.347,318.899 251.628,309.759 240.05,304.884" fill="#F5C2A6"/>
    <path d="M240.05,304.884 L241.458,301.631 C241.187,301.523 239.708,300.878 237.464,300.865 C236.185,300.864 234.628,301.101 233.06,301.879 C231.492,302.649 229.979,303.969 228.822,305.793 L228.82,305.795 C227.935,307.166 227.489,308.766 227.497,310.288 C227.5,312.175 228.113,313.891 228.997,315.36 C230.339,317.567 232.301,319.333 234.579,320.644 C236.86,321.942 239.488,322.789 242.278,322.796 C242.48,322.796 242.671,322.792 242.85,322.786 L242.906,322.783 C245.335,322.663 247.589,321.698 249.203,320.077 C250.823,318.468 251.765,316.211 251.756,313.857 C251.76,311.445 250.799,309 249.044,306.911 C247.284,304.811 244.754,303.019 241.425,301.616 L240.05,304.884 L241.458,301.631 L240.05,304.884 L238.674,308.151 C241.195,309.21 242.747,310.427 243.605,311.458 C244.468,312.5 244.664,313.311 244.667,313.857 C244.658,314.396 244.493,314.747 244.188,315.065 C243.875,315.371 243.385,315.652 242.537,315.703 L242.722,319.243 L242.593,315.7 C242.475,315.705 242.371,315.707 242.278,315.707 C241.423,315.708 240.452,315.519 239.497,315.153 C238.062,314.613 236.684,313.661 235.796,312.667 C235.35,312.175 235.026,311.679 234.836,311.262 C234.644,310.841 234.585,310.513 234.586,310.288 C234.594,310.041 234.625,309.892 234.794,309.613 L234.793,309.615 C235.346,308.766 235.807,308.439 236.211,308.23 C236.616,308.03 237.032,307.956 237.464,307.955 C237.834,307.954 238.196,308.018 238.433,308.08 C238.55,308.11 238.636,308.138 238.676,308.152 L238.696,308.16 L238.699,308.161 L239.324,306.558 L238.641,308.136 L238.699,308.161 L239.324,306.558 L238.641,308.136 L238.674,308.151 L240.05,304.884" fill="#F5C2A6"/>
    <path d="M264.284,275.938 C264.284,275.938 255.222,271.602 247.394,278.032 C239.581,284.454 235.44,300.579 235.44,300.579 L264.284,275.938" fill="#F5C2A6"/>
    <path d="M264.284,275.938 L265.814,272.741 C265.531,272.619 262.137,270.981 257.269,270.963 C255.466,270.963 253.458,271.2 251.378,271.868 C249.3,272.532 247.158,273.635 245.143,275.293 C242.75,277.269 240.836,279.775 239.211,282.406 C236.784,286.354 235.021,290.621 233.826,293.94 C232.635,297.256 232.027,299.62 232.007,299.697 C231.623,301.19 232.256,302.771 233.564,303.587 C234.873,304.402 236.57,304.275 237.743,303.274 L266.586,278.633 C267.496,277.855 267.954,276.665 267.799,275.477 C267.643,274.29 266.894,273.257 265.814,272.741 L264.284,275.938 L261.981,273.243 L233.138,297.884 L235.44,300.579 L238.874,301.46 L238.874,301.458 C238.909,301.319 239.94,297.398 241.85,292.86 C242.802,290.593 243.974,288.174 245.312,286.02 C246.644,283.864 248.154,281.987 249.645,280.77 C250.961,279.69 252.264,279.031 253.543,278.618 C254.822,278.208 256.085,278.053 257.269,278.053 C258.861,278.051 260.302,278.342 261.312,278.631 C261.816,278.775 262.212,278.918 262.464,279.017 C262.59,279.066 262.68,279.104 262.729,279.125 L262.773,279.145 L263.301,277.992 L262.754,279.136 L262.773,279.145 L263.301,277.992 L262.754,279.136 L264.284,275.938 L261.981,273.243 L264.284,275.938" fill="#F5C2A6"/>
    <path d="M258.644,334.36 C249.597,324.61 257.683,320.563 257.683,320.563 C257.683,320.563 253.878,318.798 250.675,315.423 C247.472,312.001 251.901,311.04 248.62,309.86 C245.362,308.665 237.862,306.267 239.659,300.259 C240.87,296.251 254.675,276.188 267.839,276.532 C281.026,276.938 294.987,300.626 295.026,305.579 C295.183,324.923 284.128,340.587 284.128,340.587 C284.128,340.587 266.026,342.313 258.644,334.36" fill="#F5C2A6"/>
    <path d="M258.644,334.36 L261.242,331.949 C259.806,330.402 258.952,329.113 258.48,328.123 C258.007,327.129 257.904,326.456 257.901,325.992 C257.904,325.575 257.983,325.294 258.103,325.023 C258.279,324.626 258.607,324.254 258.91,324.002 C259.058,323.878 259.192,323.787 259.267,323.74 L259.329,323.702 L258.597,322.391 L259.268,323.733 L259.329,323.702 L258.597,322.391 L259.268,323.733 C260.481,323.126 261.247,321.868 261.227,320.511 C261.207,319.155 260.405,317.918 259.175,317.348 L259.173,317.347 C259.067,317.296 258.207,316.875 257.063,316.125 C255.918,315.378 254.493,314.299 253.246,312.982 L253.263,313 C253.123,312.851 253.033,312.735 252.981,312.661 L252.919,312.563 L252.918,312.562 L252.102,312.929 L252.982,312.93 C252.987,312.767 252.931,312.577 252.918,312.562 L252.102,312.929 L252.982,312.93 L252.052,312.93 L252.961,313.144 C252.966,313.122 252.983,313.036 252.982,312.93 L252.052,312.93 L252.961,313.144 C252.969,313.111 253.021,312.974 253.133,312.663 C253.188,312.505 253.256,312.302 253.322,312.025 C253.386,311.749 253.448,311.395 253.449,310.956 C253.453,310.439 253.343,309.792 253.074,309.208 C252.877,308.769 252.605,308.379 252.321,308.07 C251.89,307.602 251.449,307.302 251.04,307.07 C250.627,306.839 250.232,306.674 249.819,306.524 L249.841,306.532 C249.068,306.249 248.192,305.943 247.302,305.574 C245.971,305.032 244.64,304.321 243.871,303.633 C243.482,303.293 243.239,302.981 243.109,302.738 C242.981,302.487 242.934,302.318 242.928,302.028 C242.929,301.842 242.955,301.607 243.052,301.286 L243.052,301.283 C243.052,301.279 243.119,301.09 243.241,300.83 C243.471,300.333 243.889,299.56 244.449,298.652 C246.412,295.452 250.121,290.563 254.435,286.676 C256.589,284.727 258.894,283.025 261.146,281.859 C263.401,280.686 265.566,280.067 267.503,280.071 C267.604,280.071 267.663,280.072 267.686,280.074 L267.729,280.075 C268.854,280.109 270.087,280.397 271.409,280.957 C273.721,281.929 276.26,283.753 278.667,286.061 C282.288,289.513 285.62,294.012 287.966,297.953 C289.141,299.92 290.075,301.752 290.682,303.193 C290.986,303.911 291.208,304.532 291.336,304.983 C291.401,305.208 291.443,305.39 291.463,305.506 L291.481,305.624 L291.482,305.635 L292.01,305.602 L291.481,305.607 L291.482,305.635 L292.01,305.602 L291.481,305.607 C291.482,305.723 291.482,305.85 291.482,305.985 C291.489,314.885 288.926,323.099 286.328,329.054 C285.031,332.03 283.733,334.438 282.771,336.084 C282.29,336.907 281.892,337.54 281.622,337.957 C281.486,338.166 281.382,338.321 281.315,338.42 L281.244,338.525 L281.23,338.545 L281.229,338.547 L282.913,339.729 L281.231,338.543 L281.229,338.547 L282.913,339.729 L281.231,338.543 L284.128,340.587 L283.792,337.058 L283.924,338.444 L283.795,337.058 L283.792,337.058 L283.924,338.444 L283.795,337.058 C283.779,337.059 282.247,337.2 279.95,337.2 C277.222,337.203 273.406,336.993 269.839,336.175 C268.057,335.769 266.341,335.214 264.864,334.502 C263.382,333.79 262.151,332.931 261.242,331.949 L256.045,336.771 C257.708,338.561 259.702,339.886 261.792,340.892 C264.932,342.396 268.314,343.213 271.491,343.692 C274.668,344.166 277.645,344.289 279.95,344.289 C282.616,344.289 284.378,344.123 284.463,344.116 C285.497,344.017 286.425,343.478 287.024,342.63 C287.123,342.488 289.969,338.443 292.827,331.885 C295.679,325.327 298.565,316.24 298.572,305.985 C298.572,305.85 298.572,305.706 298.571,305.553 C298.562,304.834 298.452,304.231 298.305,303.609 C298.023,302.455 297.576,301.249 296.984,299.904 C295.947,297.563 294.457,294.84 292.604,291.998 C289.822,287.74 286.25,283.238 282.137,279.627 C280.076,277.823 277.876,276.239 275.517,275.052 C273.162,273.869 270.623,273.073 267.948,272.989 L267.839,276.532 L267.991,272.99 C267.788,272.982 267.624,272.982 267.503,272.982 C265.421,272.982 263.397,273.374 261.472,274.024 C258.1,275.168 255.003,277.079 252.177,279.304 C247.943,282.649 244.305,286.733 241.555,290.367 C240.182,292.186 239.035,293.891 238.152,295.362 C237.71,296.099 237.334,296.777 237.023,297.403 C236.711,298.037 236.463,298.592 236.266,299.234 L236.266,299.231 C235.983,300.165 235.838,301.109 235.839,302.028 C235.837,303.014 236.008,303.975 236.315,304.848 C236.853,306.385 237.774,307.613 238.769,308.57 C240.272,310.008 241.963,310.934 243.51,311.654 C245.053,312.363 246.494,312.854 247.399,313.188 L247.421,313.196 L247.563,313.251 L247.587,313.262 L247.588,313.262 L248.493,311.495 L246.95,312.689 C247.305,313.135 247.574,313.249 247.588,313.262 L248.493,311.495 L246.95,312.689 L249.186,310.959 L246.504,311.847 C246.608,312.167 246.779,312.471 246.95,312.689 L249.186,310.959 L246.504,311.847 L249.195,310.956 L246.359,310.956 C246.358,311.203 246.397,311.526 246.504,311.847 L249.195,310.956 L246.359,310.956 L248.527,310.956 L246.444,310.314 C246.438,310.345 246.364,310.539 246.359,310.956 L248.527,310.956 L246.444,310.314 L246.835,310.435 L246.445,310.309 L246.444,310.314 L246.835,310.435 L246.445,310.309 C246.45,310.311 246.336,310.583 246.192,311.036 C246.051,311.488 245.892,312.148 245.893,312.93 C245.888,313.752 246.083,314.676 246.472,315.512 C246.858,316.353 247.406,317.117 248.086,317.845 L248.104,317.863 C249.976,319.833 251.947,321.27 253.472,322.246 C254.997,323.22 256.081,323.727 256.19,323.779 L257.683,320.563 L256.097,317.393 C255.86,317.518 254.699,318.103 253.434,319.441 C252.806,320.111 252.153,320.983 251.649,322.087 C251.146,323.187 250.809,324.527 250.812,325.992 C250.81,327.634 251.227,329.395 252.085,331.184 C252.945,332.978 254.235,334.82 256.045,336.771 L258.644,334.36" fill="#F5C2A6"/>
    <path d="M273.865,311.974 L273.863,311.977 C273.781,312.097 271.649,315.093 268.854,317.955 C267.463,319.384 265.901,320.775 264.434,321.74 C263.702,322.224 262.997,322.6 262.377,322.837 C261.756,323.078 261.232,323.175 260.838,323.174 C260.474,323.17 260.22,323.108 259.947,322.97 C259.677,322.829 259.362,322.589 258.992,322.097 L256.862,323.688 L259.113,322.274 L257.741,323.136 L259.13,322.302 L259.113,322.274 L257.741,323.136 L259.13,322.302 L258.884,322.45 L259.132,322.304 L259.13,322.302 L258.884,322.45 L259.132,322.304 C259.128,322.299 258.971,322.025 258.827,321.601 C258.681,321.176 258.55,320.607 258.551,319.995 C258.554,319.422 258.652,318.82 258.961,318.152 L258.963,318.147 C259.928,316.053 261.485,313.871 263.302,311.828 C266.024,308.758 269.307,305.998 271.893,304.036 C273.185,303.054 274.304,302.269 275.092,301.734 C275.487,301.466 275.799,301.261 276.009,301.125 C276.114,301.057 276.194,301.006 276.246,300.973 L276.302,300.937 L276.315,300.929 C277.561,300.152 277.942,298.513 277.166,297.267 C276.389,296.02 274.75,295.64 273.503,296.416 C273.435,296.46 269.881,298.674 265.707,302.17 C263.619,303.92 261.374,305.991 259.325,308.298 C257.278,310.609 255.417,313.152 254.136,315.916 L254.138,315.912 C253.473,317.34 253.232,318.76 253.234,319.995 C253.236,321.472 253.561,322.696 253.884,323.571 C254.209,324.448 254.538,324.984 254.611,325.102 L254.732,325.28 C255.5,326.31 256.437,327.142 257.502,327.692 C258.565,328.246 259.73,328.494 260.838,328.491 C262.077,328.489 263.246,328.205 264.34,327.779 C266.254,327.026 267.987,325.838 269.599,324.511 C272.005,322.517 274.122,320.174 275.672,318.312 C277.219,316.45 278.188,315.07 278.218,315.027 C279.061,313.825 278.77,312.167 277.568,311.325 C276.366,310.481 274.708,310.772 273.866,311.975" fill="#EC988F"/>
    <path d="M269.753,317.376 C269.715,317.454 268.982,318.939 268.24,321.167 C267.503,323.4 266.739,326.366 266.732,329.522 C266.734,331.885 267.173,334.421 268.595,336.695 C269.375,337.939 271.016,338.314 272.26,337.534 C273.503,336.753 273.879,335.113 273.099,333.869 C272.383,332.738 272.048,331.234 272.049,329.522 C272.043,327.258 272.65,324.74 273.286,322.845 C273.602,321.895 273.919,321.097 274.153,320.548 C274.27,320.273 274.366,320.06 274.431,319.92 L274.502,319.768 L274.518,319.736 L274.518,319.735 C275.169,318.419 274.63,316.824 273.315,316.173 C271.999,315.522 270.404,316.061 269.753,317.376" fill="#EC988F"/>
    <path d="M254.948,316.897 C254.942,316.897 254.39,316.896 253.599,316.813 C252.414,316.701 250.677,316.356 249.545,315.753 C248.974,315.458 248.579,315.126 248.363,314.831 C248.151,314.525 248.039,314.278 248.027,313.73 C248.027,313.308 248.127,312.688 248.472,311.841 C248.814,310.997 249.4,309.936 250.307,308.682 L250.31,308.677 C251.921,306.433 254.079,304.009 256.399,301.673 C259.88,298.164 263.727,294.839 266.69,292.407 C268.172,291.191 269.434,290.196 270.322,289.508 C270.766,289.164 271.117,288.897 271.355,288.717 C271.474,288.626 271.564,288.559 271.625,288.513 L271.711,288.449 C272.891,287.574 273.138,285.909 272.263,284.73 C271.388,283.55 269.724,283.303 268.544,284.178 C268.509,284.204 264.706,287.025 260.003,291.086 C257.651,293.118 255.075,295.458 252.625,297.927 C250.174,300.398 247.85,302.99 245.992,305.575 L245.996,305.569 C244.899,307.089 244.094,308.494 243.546,309.839 C243,311.182 242.711,312.477 242.71,313.73 C242.708,314.807 242.935,315.845 243.352,316.748 C243.714,317.54 244.212,318.222 244.767,318.785 C245.743,319.774 246.873,320.417 247.976,320.884 C249.636,321.577 251.282,321.882 252.57,322.047 C253.855,322.208 254.782,322.214 254.948,322.214 C256.416,322.214 257.606,321.023 257.606,319.556 C257.606,318.087 256.416,316.897 254.948,316.897" fill="#EC988F"/>
    <path d="M246.331,308.52 L246.138,309.999 L246.339,308.522 L246.331,308.52 L246.138,309.999 L246.339,308.522 L246.262,308.51 C245.861,308.454 243.963,308.077 242.442,307.233 C241.678,306.819 241.032,306.306 240.632,305.773 C240.43,305.505 240.28,305.234 240.175,304.934 C240.071,304.633 240.006,304.3 240.005,303.877 C240.006,303.319 240.124,302.595 240.489,301.66 C240.854,300.727 241.467,299.594 242.418,298.272 C246.499,292.592 251.68,287.906 255.831,284.679 C257.906,283.064 259.721,281.811 261.008,280.967 C261.651,280.545 262.162,280.227 262.507,280.016 C262.68,279.91 262.812,279.831 262.897,279.781 L262.991,279.726 L263.011,279.714 L263.013,279.713 C264.286,278.983 264.727,277.358 263.997,276.085 C263.266,274.811 261.642,274.371 260.368,275.101 C260.289,275.146 256.982,277.045 252.565,280.483 C248.149,283.923 242.616,288.894 238.102,295.167 C236.946,296.774 236.104,298.279 235.538,299.723 C234.973,301.165 234.688,302.555 234.688,303.877 C234.687,304.957 234.882,305.985 235.234,306.903 C235.85,308.52 236.912,309.757 238.034,310.665 C239.729,312.027 241.584,312.751 243.033,313.198 C244.482,313.639 245.541,313.779 245.643,313.793 C247.099,313.983 248.433,312.957 248.624,311.501 C248.813,310.045 247.787,308.711 246.332,308.521" fill="#EC988F"/>
    <path d="M296.304,292.139 C296.263,292.075 293.895,288.282 290.223,283.844 C288.385,281.624 286.222,279.241 283.832,277.073 C281.439,274.907 278.828,272.946 276.009,271.606 C271.326,269.396 265.328,267.868 259.179,267.86 C255.191,267.861 251.13,268.514 247.384,270.15 C243.643,271.779 240.226,274.435 237.723,278.272 L237.721,278.275 C235.288,282.01 233.177,285.174 231.607,288.094 C230.824,289.557 230.173,290.962 229.706,292.371 C229.239,293.778 228.955,295.201 228.955,296.648 C228.948,298.385 229.388,300.137 230.268,301.738 C231.145,303.345 232.417,304.806 234.052,306.222 C235.162,307.183 236.841,307.061 237.802,305.952 C238.763,304.841 238.642,303.162 237.532,302.202 C236.233,301.08 235.416,300.076 234.937,299.194 C234.46,298.306 234.278,297.545 234.271,296.648 C234.271,295.904 234.419,295.051 234.752,294.044 C235.249,292.537 236.173,290.712 237.449,288.578 C238.723,286.442 240.339,283.995 242.175,281.179 L242.173,281.182 C244.095,278.253 246.596,276.305 249.515,275.021 C252.429,273.745 255.771,273.176 259.179,273.177 C264.422,273.169 269.8,274.541 273.732,276.411 C275.865,277.418 278.128,279.074 280.26,281.012 C283.465,283.915 286.384,287.432 288.47,290.203 C289.514,291.589 290.353,292.79 290.927,293.637 C291.214,294.061 291.435,294.397 291.582,294.623 C291.655,294.737 291.71,294.823 291.746,294.879 L291.785,294.941 L291.795,294.956 C292.572,296.201 294.212,296.58 295.458,295.803 C296.703,295.025 297.082,293.385 296.305,292.14" fill="#EC988F"/>
    <path d="M232.207,300.696 C232.066,300.757 230.311,301.434 228.406,302.909 C227.456,303.652 226.457,304.603 225.648,305.856 C224.843,307.1 224.243,308.695 224.247,310.492 C224.244,312.09 224.719,313.782 225.674,315.436 L225.669,315.426 C226.479,316.845 227.552,318.107 228.768,319.234 C230.594,320.921 232.75,322.308 234.965,323.313 C237.187,324.31 239.448,324.947 241.656,324.957 C242.462,324.957 243.268,324.868 244.063,324.638 C244.659,324.465 245.25,324.209 245.802,323.848 C246.63,323.311 247.354,322.513 247.806,321.57 C248.264,320.627 248.461,319.58 248.46,318.506 C248.46,317.95 248.409,317.384 248.313,316.804 C248.075,315.355 246.707,314.373 245.259,314.612 C243.81,314.851 242.829,316.218 243.067,317.667 C243.122,318 243.144,318.282 243.144,318.506 C243.143,318.894 243.082,319.109 243.039,319.212 L242.961,319.341 C242.926,319.375 242.864,319.435 242.655,319.508 C242.45,319.579 242.107,319.642 241.656,319.641 C240.922,319.644 239.917,319.475 238.833,319.121 C237.202,318.596 235.389,317.669 233.836,316.528 C232.278,315.394 230.988,314.035 230.29,312.794 L230.284,312.785 C229.713,311.784 229.567,311.064 229.564,310.492 C229.568,309.854 229.751,309.316 230.122,308.731 C230.666,307.864 231.691,307.017 232.598,306.46 C233.048,306.179 233.461,305.965 233.747,305.827 C233.891,305.758 234.002,305.708 234.072,305.679 L234.143,305.649 L234.129,305.618 L234.142,305.649 L234.143,305.649 L234.129,305.618 L234.142,305.649 C235.509,305.114 236.185,303.573 235.651,302.206 C235.116,300.838 233.575,300.162 232.208,300.697" fill="#EC988F"/>
    <path d="M307.058,343.048 L264.386,359.485 C264.386,359.485 276.144,396.532 296.55,410.173 C333.776,435.017 328.19,378.767 307.058,343.048" fill="#E77A6B"/>
    <path d="M307.058,343.048 L305.783,339.74 L263.111,356.177 C261.364,356.85 260.44,358.773 261.007,360.558 C261.044,360.67 264.028,370.075 269.646,381.3 C272.457,386.915 275.927,392.987 280.061,398.601 C284.199,404.21 288.995,409.379 294.58,413.12 L294.582,413.121 C297.942,415.362 301.032,417.022 303.922,418.145 C306.811,419.265 309.513,419.853 312.072,419.855 C314.67,419.863 317.129,419.211 319.188,417.941 C320.733,416.994 322.034,415.728 323.077,414.276 C324.645,412.091 325.667,409.506 326.325,406.658 C326.98,403.806 327.27,400.671 327.271,397.309 C327.265,389.131 325.554,379.568 322.575,369.794 C319.591,360.026 315.329,350.071 310.108,341.243 C309.226,339.75 307.4,339.116 305.783,339.74 L307.058,343.048 L304.006,344.852 C308.9,353.121 312.973,362.616 315.794,371.865 C318.621,381.107 320.187,390.125 320.181,397.309 C320.182,399.929 319.975,402.3 319.574,404.325 C319.275,405.843 318.868,407.165 318.382,408.256 C317.648,409.902 316.77,410.991 315.81,411.679 C315.324,412.026 314.807,412.286 314.202,412.472 C313.599,412.656 312.902,412.766 312.072,412.766 C310.625,412.768 308.761,412.419 306.487,411.536 C304.215,410.655 301.546,409.247 298.517,407.224 L298.52,407.226 C293.901,404.145 289.575,399.568 285.769,394.395 C280.051,386.641 275.505,377.59 272.433,370.513 C270.895,366.975 269.721,363.928 268.935,361.777 C268.542,360.702 268.246,359.85 268.05,359.273 C267.952,358.984 267.879,358.764 267.831,358.619 L267.778,358.457 L267.767,358.42 L267.764,358.413 L264.386,359.485 L265.66,362.793 L308.332,346.355 L307.058,343.048 L304.006,344.852 L307.058,343.048" fill="#E77A6B"/>
    <path d="M268.894,240.352 C268.894,240.352 288.995,238.243 298.487,253.017 C308.565,268.704 290.495,272.056 286.417,262.376 C281.315,250.267 282.37,244.813 268.894,240.352" fill="#5CA7D0"/>
    <path d="M268.894,240.352 L269.265,243.877 L269.119,242.498 L269.257,243.878 L269.265,243.877 L269.119,242.498 L269.257,243.878 C269.274,243.876 270.128,243.792 271.532,243.792 C274.154,243.788 278.691,244.098 283.248,245.674 C285.528,246.459 287.812,247.553 289.906,249.054 C292.002,250.558 293.914,252.459 295.505,254.933 C296.454,256.409 297.078,257.7 297.453,258.776 C297.83,259.854 297.958,260.711 297.958,261.353 C297.956,261.977 297.845,262.399 297.703,262.72 C297.484,263.191 297.188,263.505 296.689,263.792 C296.195,264.069 295.487,264.26 294.688,264.258 C293.719,264.261 292.65,263.977 291.764,263.43 C290.874,262.876 290.155,262.108 289.684,260.999 C288.461,258.1 287.6,255.577 286.754,253.244 C286.118,251.495 285.491,249.846 284.696,248.248 C283.517,245.858 281.874,243.572 279.47,241.693 C277.069,239.805 274.034,238.321 270.007,236.987 L268.894,240.352 L269.265,243.877 L268.894,240.352 L267.779,243.718 C270.936,244.761 273.068,245.814 274.551,246.866 C275.667,247.66 276.441,248.443 277.115,249.353 C278.118,250.708 278.904,252.452 279.79,254.847 C280.677,257.229 281.655,260.203 283.15,263.752 C284.208,266.274 286.004,268.219 288.056,269.472 C290.112,270.73 292.415,271.345 294.688,271.348 C297.175,271.345 299.706,270.603 301.735,268.878 C302.742,268.019 303.598,266.908 304.173,265.617 C304.753,264.327 305.049,262.872 305.047,261.353 C305.046,259.781 304.74,258.14 304.146,256.438 C303.55,254.735 302.666,252.964 301.47,251.101 C299.368,247.827 296.785,245.259 294.035,243.291 C289.905,240.335 285.428,238.708 281.432,237.8 C277.431,236.894 273.891,236.704 271.532,236.703 C269.735,236.703 268.624,236.816 268.522,236.827 C266.861,237.002 265.548,238.312 265.369,239.973 C265.19,241.632 266.194,243.193 267.779,243.718 L268.894,240.352" fill="#5CA7D0"/>
    <path d="M316.065,281.915 C316.065,281.915 326.495,282.462 335.206,291.47 C348.19,304.884 328.464,312.993 324.401,303.298 C319.308,291.196 324.909,292.86 316.065,281.915" fill="#5CA7D0"/>
    <path d="M316.065,281.915 L315.879,285.455 L315.943,284.231 L315.864,285.454 L315.879,285.455 L315.943,284.231 L315.864,285.454 C315.933,285.457 318.292,285.625 321.534,286.777 C324.784,287.93 328.895,290.043 332.658,293.934 C334.018,295.338 334.875,296.589 335.374,297.622 C335.874,298.659 336.024,299.462 336.026,300.087 C336.022,300.677 335.898,301.133 335.677,301.57 C335.349,302.216 334.74,302.834 333.904,303.291 C333.076,303.749 332.047,304.012 331.113,304.008 C330.271,304.009 329.531,303.808 328.981,303.481 C328.43,303.143 328.015,302.724 327.671,301.929 L327.668,301.922 C326.473,299.079 325.957,297.185 325.675,295.723 C325.463,294.621 325.383,293.738 325.276,292.732 C325.195,291.982 325.099,291.156 324.891,290.234 C324.582,288.845 324.007,287.324 323.05,285.653 C322.092,283.971 320.76,282.087 318.822,279.687 L316.065,281.915 L315.879,285.455 L316.065,281.915 L313.308,284.143 C315.435,286.771 316.601,288.547 317.221,289.776 C317.689,290.706 317.872,291.306 318.01,291.96 C318.112,292.452 318.177,293.002 318.252,293.721 C318.365,294.795 318.504,296.225 318.913,298.017 C319.322,299.813 319.993,301.965 321.134,304.673 L321.131,304.666 C322.024,306.826 323.576,308.535 325.376,309.586 C327.178,310.647 329.176,311.097 331.113,311.098 C333.999,311.086 336.827,310.137 339.123,308.296 C340.264,307.373 341.267,306.206 341.984,304.809 C342.703,303.416 343.119,301.792 343.115,300.087 C343.117,298.268 342.653,296.383 341.755,294.532 C340.856,292.677 339.531,290.842 337.753,289.004 C332.926,284.013 327.614,281.359 323.515,279.959 C319.409,278.559 316.491,278.389 316.251,278.375 C314.852,278.301 313.544,279.056 312.908,280.304 C312.271,281.551 312.428,283.053 313.308,284.143 L316.065,281.915" fill="#5CA7D0"/>
    <path d="M97.136,240.352 C97.136,240.352 77.042,238.243 67.55,253.017 C57.487,268.704 75.558,272.056 79.636,262.376 C84.737,250.267 83.659,244.813 97.136,240.352" fill="#5CA7D0"/>
    <path d="M97.136,240.352 L97.507,236.827 C97.405,236.816 96.294,236.703 94.498,236.703 C91.354,236.707 86.106,237.036 80.475,238.971 C77.662,239.941 74.75,241.321 71.999,243.291 C69.25,245.259 66.668,247.828 64.567,251.101 L64.566,251.102 C63.372,252.964 62.49,254.732 61.896,256.434 C61.303,258.134 60.997,259.774 60.997,261.346 C60.995,262.865 61.291,264.321 61.87,265.612 C62.734,267.558 64.229,269.062 65.917,269.99 C67.612,270.927 69.489,271.346 71.362,271.348 C73.635,271.345 75.938,270.73 77.995,269.472 C80.047,268.22 81.844,266.274 82.902,263.753 C84.232,260.596 85.15,257.895 85.96,255.66 C86.567,253.982 87.113,252.573 87.694,251.408 C88.578,249.653 89.457,248.456 90.953,247.261 C92.452,246.075 94.696,244.892 98.25,243.718 C99.834,243.193 100.839,241.632 100.66,239.973 C100.481,238.312 99.167,237.002 97.507,236.827 L97.136,240.352 L96.022,236.987 C92.439,238.174 89.651,239.476 87.384,241.08 C85.687,242.279 84.306,243.658 83.212,245.153 C81.562,247.406 80.564,249.818 79.611,252.38 C78.659,254.954 77.743,257.738 76.369,260.999 C75.897,262.107 75.178,262.876 74.287,263.429 C73.401,263.977 72.332,264.261 71.362,264.258 C70.286,264.261 69.409,263.919 68.92,263.49 C68.668,263.271 68.487,263.036 68.341,262.716 C68.199,262.394 68.088,261.971 68.086,261.346 C68.086,260.703 68.214,259.847 68.59,258.77 C68.964,257.695 69.586,256.406 70.533,254.93 L70.532,254.932 C72.123,252.458 74.034,250.558 76.129,249.054 C79.266,246.803 82.844,245.467 86.168,244.714 C89.488,243.96 92.531,243.791 94.498,243.792 C95.246,243.792 95.838,243.816 96.23,243.839 C96.426,243.85 96.573,243.861 96.663,243.869 L96.757,243.877 L96.772,243.878 L96.911,242.487 L96.764,243.877 L96.772,243.878 L96.911,242.487 L96.764,243.877 L97.136,240.352 L96.022,236.987 L97.136,240.352" fill="#5CA7D0"/>
    <path d="M49.987,281.915 C49.987,281.915 39.558,282.462 30.831,291.47 C17.878,304.884 37.565,312.993 41.651,303.298 C46.729,291.196 41.12,292.86 49.987,281.915" fill="#5CA7D0"/>
    <path d="M49.987,281.915 L49.802,278.375 C49.561,278.389 46.644,278.559 42.536,279.959 C38.436,281.358 33.12,284.012 28.285,289.003 L28.281,289.007 C26.508,290.844 25.186,292.679 24.289,294.533 C23.394,296.382 22.932,298.266 22.933,300.084 C22.93,301.789 23.345,303.412 24.063,304.805 C25.142,306.905 26.84,308.471 28.734,309.509 C30.636,310.548 32.762,311.095 34.929,311.099 C36.867,311.098 38.865,310.648 40.667,309.587 C42.467,308.537 44.019,306.831 44.917,304.675 L44.92,304.669 C46.268,301.461 46.958,299.024 47.332,297.053 C47.612,295.58 47.714,294.393 47.812,293.485 C47.884,292.8 47.953,292.28 48.062,291.797 C48.23,291.078 48.474,290.36 49.151,289.162 C49.826,287.976 50.944,286.364 52.742,284.146 C53.623,283.057 53.781,281.554 53.146,280.306 C52.51,279.058 51.2,278.301 49.802,278.375 L49.987,281.915 L47.233,279.684 C44.932,282.527 43.478,284.648 42.499,286.563 C41.767,287.992 41.325,289.33 41.082,290.537 C40.897,291.442 40.813,292.246 40.735,292.984 C40.62,294.097 40.523,295.089 40.217,296.448 C39.91,297.801 39.387,299.529 38.383,301.926 L38.385,301.92 C38.037,302.719 37.618,303.142 37.063,303.481 C36.511,303.81 35.771,304.01 34.929,304.009 C34.307,304.01 33.643,303.898 33.025,303.683 C32.093,303.363 31.291,302.813 30.791,302.203 C30.538,301.896 30.352,301.578 30.224,301.237 C30.097,300.895 30.023,300.528 30.022,300.084 C30.024,299.457 30.174,298.654 30.673,297.617 C31.17,296.585 32.026,295.334 33.381,293.932 L33.377,293.936 C37.268,289.919 41.531,287.795 44.827,286.669 C46.472,286.107 47.868,285.799 48.823,285.634 C49.301,285.552 49.668,285.505 49.902,285.48 C50.018,285.468 50.101,285.46 50.147,285.457 L50.189,285.454 L50.109,284.232 L50.173,285.455 L50.189,285.454 L50.109,284.232 L50.173,285.455 L49.987,281.915 L47.233,279.684 L49.987,281.915" fill="#5CA7D0"/>
    <path d="M331.69,61.665 C331.69,61.665 340.44,45.642 354.948,45.665 C370.339,45.673 365.651,58.485 356.979,57.095 C346.183,55.384 340.261,54.962 331.69,61.665" fill="#5CA7D0"/>
    <path d="M331.69,61.665 L334.801,63.364 L333.808,62.821 L334.798,63.369 L334.801,63.364 L333.808,62.821 L334.798,63.369 C334.826,63.309 336.934,59.558 340.548,56 C342.352,54.218 344.521,52.491 346.938,51.243 C349.36,49.993 352,49.211 354.916,49.209 L354.944,49.209 L354.929,46.593 L354.91,49.209 L354.944,49.209 L354.929,46.593 L354.91,49.209 L354.933,46.031 L354.8,49.207 L354.91,49.209 L354.933,46.031 L354.8,49.207 L354.946,49.21 C356.533,49.21 357.796,49.369 358.749,49.603 C360.189,49.955 360.886,50.459 361.17,50.764 C361.317,50.921 361.377,51.033 361.416,51.126 C361.452,51.219 361.468,51.3 361.469,51.41 C361.469,51.554 361.433,51.756 361.316,52 C361.144,52.365 360.783,52.798 360.264,53.116 C359.744,53.436 359.089,53.653 358.283,53.654 C358.05,53.654 357.8,53.636 357.537,53.594 C353.567,52.967 350.126,52.478 346.766,52.475 C343.837,52.471 340.959,52.873 338.101,53.909 C335.239,54.941 332.443,56.573 329.506,58.873 L331.69,61.665 L334.801,63.364 L331.69,61.665 L333.875,64.457 C336.388,62.491 338.506,61.301 340.509,60.577 C342.515,59.857 344.45,59.568 346.766,59.564 C349.407,59.561 352.533,59.976 356.424,60.596 C357.048,60.695 357.67,60.744 358.283,60.744 C361.122,60.746 363.667,59.682 365.5,58.011 C366.418,57.174 367.171,56.183 367.707,55.068 C368.242,53.956 368.558,52.711 368.558,51.41 C368.562,50.12 368.234,48.777 367.561,47.575 C367.059,46.672 366.372,45.855 365.549,45.166 C364.313,44.129 362.789,43.374 361.03,42.874 C359.267,42.374 357.258,42.122 354.95,42.12 L354.948,45.665 L355.096,42.123 L354.931,42.12 L354.902,42.12 L354.916,44.421 L354.916,42.12 L354.902,42.12 L354.916,44.421 L354.916,42.12 C350.634,42.118 346.786,43.311 343.526,45.026 C338.628,47.608 334.972,51.314 332.475,54.358 C329.982,57.409 328.655,59.83 328.579,59.966 C327.773,61.441 328.116,63.282 329.397,64.368 C330.679,65.455 332.551,65.492 333.875,64.457 L331.69,61.665" fill="#5CA7D0"/>
    <path d="M301.065,32.853 C301.065,32.853 301.886,14.611 314.948,8.251 C328.776,1.517 330.183,15.079 321.808,17.65 C311.315,20.861 305.847,23.087 301.065,32.853" fill="#5CA7D0"/>
    <path d="M301.065,32.853 L304.606,33.012 L303.426,32.959 L304.606,33.018 L304.606,33.012 L303.426,32.959 L304.606,33.018 C304.604,32.952 304.851,28.65 306.54,23.86 C307.38,21.464 308.574,18.957 310.202,16.773 C311.835,14.583 313.87,12.721 316.5,11.438 C318.857,10.285 320.6,9.933 321.648,9.939 C322.186,9.94 322.542,10.022 322.768,10.107 C323.105,10.242 323.182,10.343 323.277,10.474 C323.363,10.607 323.448,10.831 323.449,11.179 C323.454,11.645 323.269,12.292 322.836,12.865 C322.401,13.439 321.761,13.951 320.767,14.261 L320.77,14.26 C318.12,15.071 315.732,15.835 313.513,16.708 C310.194,18.013 307.211,19.604 304.593,21.961 C301.971,24.314 299.808,27.352 297.881,31.294 L301.065,32.853 L304.606,33.012 L301.065,32.853 L304.249,34.411 C305.351,32.16 306.446,30.439 307.58,29.067 C309.288,27.016 311.067,25.684 313.481,24.466 C315.888,23.257 318.947,22.229 322.845,21.039 L322.848,21.038 C325.252,20.304 327.205,18.868 328.514,17.111 C329.825,15.352 330.534,13.286 330.539,11.179 C330.539,10.144 330.362,9.095 329.976,8.091 C329.404,6.585 328.315,5.184 326.832,4.25 C325.351,3.306 323.551,2.846 321.648,2.85 C319.149,2.856 316.439,3.586 313.396,5.064 C309.537,6.941 306.594,9.704 304.412,12.679 C301.134,17.154 299.472,22.096 298.563,25.934 C297.661,29.775 297.532,32.538 297.524,32.693 C297.448,34.372 298.56,35.871 300.188,36.287 C301.816,36.703 303.51,35.92 304.249,34.411 L301.065,32.853" fill="#5CA7D0"/>
    <path d="M38.854,73.118 C38.854,73.118 30.104,57.063 15.597,57.102 C0.206,57.134 4.894,69.938 13.565,68.548 C24.401,66.829 30.284,66.423 38.854,73.118" fill="#5CA7D0"/>
    <path d="M38.854,73.118 L41.967,71.422 C41.862,71.241 39.552,66.992 35.191,62.607 C33.006,60.418 30.297,58.187 27.033,56.467 C23.776,54.751 19.929,53.555 15.649,53.557 L15.648,53.557 C15.635,53.557 15.586,53.557 15.495,53.559 L15.597,57.102 L15.589,53.558 C13.538,53.562 11.722,53.765 10.106,54.162 C7.692,54.756 5.679,55.803 4.217,57.349 C3.49,58.118 2.918,59.007 2.542,59.953 C2.164,60.899 1.984,61.896 1.985,62.864 C1.985,64.165 2.302,65.409 2.836,66.522 C3.641,68.193 4.927,69.592 6.545,70.597 C8.162,71.601 10.133,72.199 12.259,72.197 C12.872,72.197 13.494,72.148 14.121,72.049 C18.021,71.427 21.147,71.012 23.784,71.016 C26.101,71.02 28.032,71.309 30.035,72.029 C32.036,72.754 34.154,73.946 36.672,75.911 C37.996,76.946 39.865,76.908 41.147,75.822 C42.428,74.735 42.771,72.897 41.967,71.422 L38.854,73.118 L41.037,70.325 C38.099,68.028 35.306,66.396 32.447,65.363 C29.591,64.325 26.715,63.922 23.784,63.926 C20.427,63.93 16.986,64.419 13.01,65.047 C12.742,65.089 12.492,65.108 12.259,65.108 C11.188,65.106 10.368,64.721 9.814,64.22 C9.539,63.972 9.343,63.697 9.228,63.455 C9.111,63.211 9.074,63.009 9.075,62.864 C9.078,62.717 9.099,62.622 9.177,62.477 C9.238,62.369 9.34,62.226 9.555,62.044 C9.875,61.774 10.466,61.42 11.457,61.138 C12.444,60.855 13.818,60.65 15.604,60.647 L15.698,60.646 L15.623,58.01 L15.623,60.647 L15.698,60.646 L15.623,58.01 L15.623,60.647 L15.649,60.647 C18.607,60.649 21.281,61.456 23.732,62.742 C27.4,64.661 30.483,67.709 32.583,70.292 C33.635,71.58 34.444,72.745 34.98,73.571 C35.248,73.983 35.448,74.311 35.576,74.527 C35.64,74.635 35.686,74.716 35.714,74.765 L35.742,74.814 L38.854,73.118 L41.037,70.325 L38.854,73.118" fill="#5CA7D0"/>
    <path d="M69.464,44.313 C69.464,44.313 68.659,26.064 55.612,19.712 C41.769,12.97 40.362,26.533 48.761,29.095 C59.229,32.29 64.714,34.548 69.464,44.313" fill="#5CA7D0"/>
    <path d="M69.464,44.313 L73.005,44.157 C72.99,43.948 72.782,39.11 70.785,33.248 C69.781,30.317 68.323,27.12 66.139,24.139 C63.96,21.164 61.021,18.4 57.164,16.525 C54.114,15.045 51.401,14.314 48.899,14.307 C47.628,14.306 46.413,14.505 45.298,14.922 C43.623,15.538 42.208,16.683 41.314,18.084 C40.411,19.483 40.009,21.079 40.01,22.626 C40.015,24.736 40.728,26.804 42.044,28.563 C43.357,30.32 45.316,31.754 47.726,32.485 C50.314,33.275 52.539,33.993 54.442,34.745 C57.307,35.879 59.402,37.052 61.211,38.681 C63.017,40.314 64.628,42.484 66.276,45.864 C67.01,47.375 68.707,48.162 70.335,47.749 C71.964,47.336 73.079,45.836 73.005,44.157 L69.464,44.313 L72.652,42.763 C71.371,40.13 69.995,37.908 68.434,36.012 C66.1,33.162 63.336,31.111 60.25,29.572 C57.157,28.023 53.761,26.918 49.795,25.704 C48.794,25.395 48.15,24.88 47.714,24.306 C47.28,23.734 47.096,23.089 47.1,22.626 C47.1,22.399 47.139,22.219 47.189,22.092 C47.272,21.899 47.334,21.815 47.518,21.69 C47.704,21.575 48.087,21.4 48.899,21.397 C49.949,21.39 51.698,21.743 54.06,22.899 C56.727,24.2 58.781,26.099 60.422,28.332 C62.881,31.669 64.316,35.765 65.07,39.012 C65.449,40.633 65.666,42.037 65.785,43.016 C65.844,43.505 65.879,43.887 65.899,44.138 C65.909,44.264 65.916,44.356 65.919,44.413 L65.922,44.469 L69.464,44.313 L72.652,42.763 L69.464,44.313" fill="#5CA7D0"/>
  </g>
</svg>
