<svg xmlns="http://www.w3.org/2000/svg" width="371" height="463" xmlns:v="https://vecta.io/nano"><defs><radialGradient id="A" gradientUnits="userSpaceOnUse" cx="-120.5" cy="563.5" r="1"><stop offset="0" stop-color="#eb968c"/><stop offset="1" stop-color="#f5c2a6"/></radialGradient></defs><g fill="#e77a6b"><path d="M208.425 328.712c15.625-1.563 40.648 3.125 76.601 30.492 18.969 14.406 27.368 20.313 35.961 37.508 8.61 17.211-6.601 25.414-30.062 16.805-17.383-6.368-55.914-24.883-67.656-30.36-11.719-5.469-14.844-54.445-14.844-54.445"/><path d="M208.425 328.712l.352 3.527a51.36 51.36 0 0 1 5.109-.251c7.401.002 16.724 1.493 28.175 5.993s25.017 12.015 40.818 24.043l.003.003c9.507 7.215 16.254 12.242 21.536 17.418 2.646 2.592 4.944 5.222 7.111 8.243s4.205 6.442 6.287 10.608c1.482 2.958 2.065 5.431 2.06 7.313-.002 1.308-.261 2.336-.697 3.209a6.09 6.09 0 0 1-1.357 1.774c-.877.802-2.113 1.512-3.76 2.022s-3.687.808-6.065.807c-4.331.004-9.755-.992-15.851-3.233-4.229-1.548-9.856-3.88-16.06-6.582-9.311-4.053-19.94-8.941-29.335-13.327l-21.984-10.335c-.285-.131-.665-.385-1.104-.821-.828-.807-1.808-2.246-2.723-4.142-1.619-3.317-3.069-7.972-4.242-13-1.77-7.552-2.966-15.968-3.705-22.46a279.17 279.17 0 0 1-.795-7.969l-.18-2.273-.043-.597-.013-.196-3.537.226.352 3.527-.352-3.527-3.538.225c.006.073.789 12.398 3.072 25.553 1.147 6.586 2.657 13.37 4.713 19.06 1.034 2.848 2.199 5.427 3.619 7.625.713 1.098 1.492 2.104 2.387 2.99s1.911 1.652 3.091 2.204l31.73 14.854 19.757 8.884c6.277 2.732 11.984 5.102 16.45 6.738 6.726 2.465 12.897 3.662 18.291 3.666 2.633-.001 5.085-.288 7.328-.885 1.681-.449 3.247-1.073 4.665-1.894 2.124-1.226 3.919-2.923 5.138-5.019 1.226-2.092 1.843-4.541 1.838-7.104-.005-3.305-.97-6.801-2.808-10.483-2.215-4.431-4.449-8.196-6.867-11.569-3.626-5.062-7.658-9.204-12.503-13.374-4.85-4.176-10.517-8.408-17.618-13.802l.003.002c-16.223-12.349-30.343-20.214-42.518-25s-22.407-6.486-30.769-6.484c-2.053 0-3.991.103-5.814.286a3.55 3.55 0 0 0-3.185 3.752l3.538-.225m-54.664 0c-15.649-1.563-40.649 3.125-76.602 30.492-18.969 14.406-26.976 17.195-35.57 34.383-8.594 17.195.39 27.351 21.508 22.265 15.625-3.757 64.078-29.007 75.797-34.476 11.742-5.469 14.867-52.664 14.867-52.664"/><path d="M153.761 328.712l.352-3.527a58.36 58.36 0 0 0-5.821-.286c-8.368-.002-18.602 1.698-30.771 6.484s-26.287 12.651-42.509 25l.003-.002c-9.375 7.127-16.092 11.39-21.832 16.274-2.862 2.44-5.458 5.043-7.878 8.159s-4.659 6.729-6.887 11.187c-2.356 4.727-3.602 9.132-3.61 13.21-.001 2.28.405 4.461 1.269 6.435.645 1.479 1.548 2.831 2.667 3.988 1.681 1.742 3.826 3.027 6.255 3.853s5.158 1.221 8.15 1.222c3.266-.001 6.857-.468 10.777-1.41 2.183-.527 4.747-1.372 7.672-2.462 5.109-1.906 11.292-4.569 17.893-7.576 9.897-4.51 20.718-9.79 30.03-14.393l12.519-6.209 8.353-4.071-.003.001c1.164-.543 2.177-1.295 3.07-2.158 1.672-1.627 2.975-3.65 4.129-5.94 2.004-4.008 3.532-8.897 4.789-14.059 1.875-7.734 3.093-16.062 3.856-22.494s1.061-10.948 1.064-10.992a3.54 3.54 0 0 0-3.185-3.761l-.352 3.527-3.538-.235-.008.122c-.09 1.309-.959 13.031-3.184 24.914-1.107 5.934-2.567 11.916-4.352 16.535-.887 2.306-1.859 4.266-2.817 5.665-.477.701-.948 1.259-1.372 1.661s-.799.652-1.093.788l-.003.002c-3.015 1.407-8.229 4.006-14.667 7.202l-33.358 16.15c-5.68 2.624-11.113 5.032-15.815 6.944-4.69 1.912-8.693 3.327-11.286 3.946-3.477.837-6.536 1.214-9.119 1.214-2.104 0-3.888-.251-5.334-.676-1.086-.318-1.981-.732-2.711-1.205-1.094-.717-1.832-1.545-2.364-2.578-.524-1.034-.84-2.317-.842-3.95-.008-2.58.844-6.015 2.862-10.04 2.068-4.135 4.054-7.317 6.144-10.007 3.134-4.029 6.535-7.025 11.068-10.455 4.523-3.42 10.14-7.222 17.331-12.682l.003-.003c15.801-12.028 29.364-19.544 40.809-24.043s20.769-5.991 28.177-5.993a51.52 51.52 0 0 1 5.116.251l.353-3.527-3.538-.235 3.538.235"/><path d="M114.425 451.157s-3.086-20.984 14.625-73.109c13.086-38.5 31.25-48.961 55.219-47.922 31.265 1.351 49.882 31.851 57.593 61.75 8.032 31.141 11.664 59.281 11.664 59.281s-31.742 7.149-77.601 6.11c-45.836-1.055-61.5-6.11-61.5-6.11"/><path d="M114.425 451.157l3.507-.516-.029.004.029-.003v-.001l-.029.004.029-.003c-.02-.154-.169-1.402-.169-3.865-.001-8.075 1.606-29.226 14.643-67.589 3.066-9.022 6.394-16.398 9.952-22.352 5.347-8.94 11.151-14.652 17.484-18.211 3.173-1.779 6.499-3.027 10.036-3.84s7.288-1.184 11.274-1.184a67.16 67.16 0 0 1 2.958.066h.005a43.17 43.17 0 0 1 19.523 5.564c8.717 4.889 16.019 12.741 21.839 22.184 5.82 9.434 10.138 20.422 12.953 31.346 3.984 15.446 6.884 30.183 8.784 41.044l2.113 12.991.516 3.577.127.93.04.308 3.516-.454-.778-3.458-.012.002c-.663.149-27.789 6.125-67.69 6.124a403.94 403.94 0 0 1-9.042-.103c-22.795-.524-38.03-2.042-47.51-3.414-4.74-.686-8.041-1.335-10.129-1.804-1.044-.234-1.785-.423-2.251-.549l-.496-.14-.1-.03-.014-.005-.466 1.473.475-1.47-.009-.003-.466 1.473.475-1.47-1.088 3.374 3.507-.516-3.507.516-1.089 3.374c.448.141 16.43 5.217 62.507 6.279l9.203.104c41.251-.001 69.075-6.259 69.259-6.299a3.55 3.55 0 0 0 2.737-3.912c-.013-.086-3.655-28.328-11.748-59.713-3.961-15.33-10.687-30.86-20.663-42.952-4.99-6.04-10.811-11.22-17.522-14.989a50.28 50.28 0 0 0-22.688-6.465h.005a73.75 73.75 0 0 0-3.274-.073c-5.901 0-11.566.736-16.948 2.498-4.035 1.32-7.902 3.218-11.551 5.771-5.477 3.831-10.442 9.115-14.909 16.047s-8.461 15.522-12.051 26.08c-13.232 38.944-15.019 60.852-15.019 69.87 0 3.142.217 4.717.243 4.896.196 1.331 1.138 2.444 2.419 2.858l1.089-3.374"/></g><path d="M200.011 332.72s19.703 14.07-1.391 25.797c-21.109 11.718-60.195-2.352-36.133-25.797h37.524" fill="#e4b29e"/><g fill="#52422b"><path d="M180.675 56.72c-49.555-17.344-104.61 8.64-134.906 60.695-30.274 52.031-15.133 102.812-2.735 133.781 12.367 30.961 278.266 57.227 300.078-40.898 20.664-92.883-48.945-148.789-101.851-157.297-38.555-6.188-60.586 3.719-60.586 3.719"/><path d="M180.675 56.72l1.171-3.346a98.56 98.56 0 0 0-32.661-5.554c-20.73 0-41.248 6.447-59.615 18.135s-34.611 28.622-46.865 49.677c-13.432 23.07-18.18 46.028-18.173 67.085.006 27.643 8.105 52.036 15.211 69.797l-.001-.003c.55 1.372 1.37 2.606 2.367 3.742 1.877 2.127 4.385 3.963 7.46 5.712 5.38 3.044 12.551 5.79 21.212 8.291 12.983 3.74 29.297 6.877 47.522 9.095s38.345 3.505 58.888 3.505c37.525-.009 76.423-4.277 107.741-15.236 15.658-5.49 29.445-12.659 40.183-21.956 5.366-4.65 9.965-9.837 13.606-15.601a59.55 59.55 0 0 0 7.851-18.996c2.606-11.709 3.812-22.876 3.811-33.468.002-18.796-3.803-35.774-10.265-50.736-9.696-22.449-25.33-40.342-42.972-53.335-17.651-12.993-37.307-21.124-55.323-24.027-9.365-1.503-17.794-2.079-25.207-2.079-23.741 0-37.035 5.902-37.395 6.065l1.454 3.233 1.171-3.346-1.171 3.346 1.453 3.233-.658-1.464.651 1.467.007-.003-.658-1.464.651 1.467c.034-.014 12.291-5.444 34.495-5.444 7.046 0 15.096.547 24.083 1.989 11.172 1.795 23.228 5.811 34.98 11.952 17.635 9.211 34.572 23.189 47.053 41.488 12.482 18.308 20.555 40.904 20.562 67.658-.001 10.053-1.144 20.699-3.642 31.929-1.355 6.087-3.698 11.638-6.925 16.748-5.643 8.935-14.035 16.537-24.581 22.904-15.808 9.552-36.417 16.25-59.139 20.499-22.722 4.257-47.549 6.089-71.816 6.088-32.904.002-64.799-3.369-89.02-8.514-12.104-2.567-22.298-5.589-29.633-8.767-3.665-1.583-6.61-3.21-8.677-4.745-1.033-.764-1.844-1.503-2.426-2.166s-.931-1.244-1.109-1.694l-.001-.003c-6.969-17.392-14.708-40.914-14.703-67.161.008-20.008 4.457-41.586 17.21-63.519 11.715-20.13 27.193-36.223 44.543-47.262 17.355-11.04 36.56-17.026 55.81-17.026a91.49 91.49 0 0 1 30.319 5.155c.855.299 1.798.259 2.624-.112l-1.453-3.233"/></g><g fill="#f5c2a6"><path d="M75.3 215.352c-7.125-9.343-17.266-14.968-27.164-14.968-7.5 0-14.492 3.203-20.157 9.226-3.984 4.219-9.179 10.86-11.289 18.407-2.562 9.054-.742 18.609 5.118 26.875 7.773 11 21.562 18.382 34.312 18.382 13.695 0 23.617-8.257 27.25-22.789 2.555-12.179-.375-25.015-8.07-35.133m223.711 0c7.133-9.343 17.289-14.968 27.172-14.968 7.5 0 14.468 3.203 20.132 9.226 4.008 4.219 9.18 10.86 11.313 18.407 2.555 9.054.719 18.609-5.141 26.875-7.75 11-21.539 18.382-34.312 18.382-13.696 0-23.594-8.257-27.227-22.789-2.578-12.179.367-25.015 8.063-35.133"/><path d="M157.292 102.782c32.578-7.125 110.102 2.258 144.516 44.969 34.429 42.703 37.187 138.219-45.414 176.453-82.618 38.219-180.29-1.055-200.274-50-19.976-48.906-11.719-146.703 101.172-171.422"/></g><path d="M235.026 259.79c16.758 38.008 71.157 15.039 57.641-16.555-2.266-5.304-6.094-10.554-9.922-13.531-18.734-14.602-41.406-2.641-46.836 14.352-1.508 4.679-2.055 10.968-.883 15.734" fill="url(#A)"/><path d="M68.019 259.79c16.734 38.008 71.132 15.039 57.617-16.555-2.25-5.304-6.078-10.554-9.922-13.531-18.711-14.602-41.406-2.641-46.836 14.352-1.508 4.679-2.055 10.968-.859 15.734" fill="url(#A)"/><path d="M173.388 249.929c.919-2.684 3.158-9.58 7.177-8.734 3.416.72 5.634 4.82 6.979 7.662 2.198 4.648 9.074.597 6.887-4.025-2.748-5.811-7.319-10.807-13.93-11.661-8.118-1.049-12.697 8.485-14.805 14.637-1.672 4.879 6.034 6.957 7.692 2.121" fill="#2d2118"/><g fill="#52422b"><path d="M191.3 114.142s92.539 30.507 122.539 98.046c0 0 24.023-20.007 3.336-71.148-10.953-27.07-62.227-45.945-95.86-44.906-17.359.547-30.015 18.008-30.015 18.008"/><path d="M191.3 114.142l-1.111 3.366.053.017c1.245.414 24.272 8.23 50.505 24.105 13.116 7.934 27.03 17.88 39.427 29.874 12.402 11.995 23.276 26.025 30.425 42.123a3.54 3.54 0 0 0 5.508 1.285c.264-.22 3.513-2.988 6.71-8.83 3.199-5.834 6.31-14.75 6.305-27.023.001-10.57-2.292-23.604-8.661-39.348-2.977-7.335-8.445-13.838-15.362-19.549-10.392-8.558-24.138-15.391-38.544-20.164-14.41-4.76-29.463-7.445-42.552-7.45a86.35 86.35 0 0 0-2.8.043c-4.924.155-9.446 1.506-13.415 3.382-5.958 2.821-10.725 6.81-14.058 10.091-3.329 3.286-5.217 5.883-5.301 5.997-.66.911-.848 2.1-.503 3.17s1.194 1.924 2.263 2.277l1.111-3.366 2.87 2.08-1.615-1.171 1.612 1.175.003-.004-1.615-1.171 1.612 1.175s.044-.061.136-.181c.681-.902 3.946-5.011 8.832-8.842 2.441-1.918 5.282-3.764 8.373-5.137s6.425-2.279 9.919-2.389a80.61 80.61 0 0 1 2.576-.04c8.078-.001 17.2 1.123 26.453 3.228 13.881 3.152 28.066 8.518 39.596 15.413 5.765 3.444 10.864 7.267 14.941 11.335s7.124 8.371 8.896 12.757c6.081 15.038 8.142 27.148 8.143 36.689-.006 11.08-2.763 18.728-5.434 23.62-1.337 2.444-2.659 4.194-3.615 5.307a18.74 18.74 0 0 1-1.115 1.199 8.03 8.03 0 0 1-.268.252l-.047.041 1.516 1.787-1.499-1.8-.017.013 1.516 1.787-1.499-1.8 2.269 2.723 3.239-1.439c-7.738-17.415-19.448-32.336-32.59-44.933-19.72-18.892-42.684-32.598-60.741-41.631s-31.219-13.37-31.337-13.41l-1.11 3.367 2.87 2.08-2.87-2.08"/><path d="M228.815 97.626s-7.5 76.531-61.539 87.031l-1.484-31.508s-11.273 32.289-44.281 36.774l6.742-36.774s-37.734 47.086-76.524 54.032c0 0-6-37.508 22.516-73.524 28.5-36.031 121.547-60.031 154.57-36.031"/><path d="M228.815 97.626l-3.528-.346-.003.036c-.091.952-2.162 19.838-10.638 39.442-4.229 9.804-10.048 19.765-17.886 27.801-3.919 4.02-8.339 7.564-13.331 10.408s-10.562 4.992-16.829 6.21l.676 3.48 3.541-.167-1.484-31.508a3.54 3.54 0 0 0-6.888-1.001c-.082.248-2.905 7.997-9.488 16.034-3.29 4.022-7.506 8.115-12.767 11.446s-11.564 5.915-19.157 6.949l.478 3.513 3.486.639 6.743-36.773a3.54 3.54 0 0 0-6.253-2.857l-.02.025c-.493.614-9.968 12.275-23.941 24.532-6.983 6.129-15.089 12.403-23.708 17.523-8.619 5.126-17.746 9.079-26.714 10.679l.625 3.49 3.501-.561-1.167.187 1.167-.182v-.005l-1.167.187 1.167-.182c-.007-.047-.483-3.126-.482-8.302-.001-6.351.715-15.853 3.857-26.812s8.701-23.378 18.419-35.653c4.799-6.076 11.739-11.968 20.097-17.311 12.535-8.023 28.236-14.819 44.543-19.569 16.304-4.756 33.226-7.471 48.163-7.468 7.713-.001 14.893.723 21.163 2.221s11.62 3.763 15.741 6.762l2.084-2.867-3.528-.346 3.528.346 2.084-2.868c-5.1-3.702-11.315-6.263-18.263-7.924s-14.655-2.412-22.809-2.413c-21.043.009-45.129 5.026-66.724 13.344-10.795 4.162-20.962 9.155-29.803 14.81s-16.362 11.971-21.835 18.883c-10.352 13.071-16.316 26.373-19.675 38.099s-4.132 21.886-4.132 28.766c0 5.79.547 9.264.571 9.418a3.56 3.56 0 0 0 4.125 2.929c10.285-1.847 20.273-6.283 29.519-11.822 13.863-8.316 26.084-19.151 34.896-27.923 8.807-8.771 14.19-15.484 14.25-15.559l-2.766-2.217-3.487-.639-6.742 36.773a3.54 3.54 0 0 0 3.964 4.152c8.791-1.191 16.2-4.259 22.282-8.167 9.131-5.867 15.298-13.563 19.214-19.777 3.915-6.222 5.589-10.992 5.655-11.173l-3.347-1.169-3.541.167 1.484 31.508a3.56 3.56 0 0 0 4.217 3.313c7.144-1.387 13.555-3.879 19.253-7.163 9.98-5.75 17.759-13.892 23.815-22.763 9.082-13.318 14.357-28.311 17.423-40.005 3.059-11.694 3.886-20.101 3.9-20.234.122-1.249-.429-2.476-1.444-3.214l-2.084 2.868"/></g><path d="M214.577 166.448c.106.162 1.639 2.641 4.404 5.241 1.387 1.298 3.089 2.633 5.138 3.682 2.042 1.045 4.466 1.802 7.153 1.802 2.466.006 5.106-.66 7.66-2.115 2.562-1.454 5.05-3.656 7.486-6.718 1.218-1.533.963-3.763-.569-4.981s-3.762-.964-4.98.569c-2.002 2.519-3.846 4.064-5.433 4.962-1.595.897-2.922 1.187-4.164 1.193-1.346 0-2.649-.374-3.928-1.026-1.912-.967-3.681-2.584-4.902-3.969-.613-.69-1.093-1.315-1.41-1.752a14.44 14.44 0 0 1-.348-.5l-.077-.116-.012-.019-1.139.719 1.145-.711-.006-.008-1.139.719 1.145-.711c-1.033-1.663-3.219-2.174-4.882-1.142s-2.175 3.218-1.142 4.882m38.917 47.323c-.325-.113-3.608-1.307-8.449-1.315a27.47 27.47 0 0 0-6.637.804c-3.588.89-7.496 2.686-11.125 5.849-3.635 3.158-6.958 7.639-9.602 13.735-.72 1.655-.364 3.579.901 4.868a4.43 4.43 0 0 0 4.85.994l-.844-2.048.837 2.051.007-.003-.844-2.048.837 2.051s.113-.046.334-.129c.774-.292 2.842-1.026 5.609-1.676s6.23-1.212 9.757-1.21c3.462-.002 6.95.539 9.988 1.905 2.234 1 4.855.001 5.856-2.233a4.43 4.43 0 0 0-2.233-5.855c-4.533-2.025-9.261-2.676-13.611-2.679-5.161.004-9.842.918-13.286 1.818s-5.644 1.806-5.781 1.862l1.687 4.097 4.064 1.765c1.472-3.387 3.104-5.984 4.77-7.988 2.505-3.003 5.073-4.7 7.54-5.726 2.465-1.019 4.867-1.342 6.926-1.342a19.67 19.67 0 0 1 4.065.423c.486.104.857.205 1.087.274a5.83 5.83 0 0 1 .234.073h.002c2.296.845 4.843-.331 5.689-2.628a4.43 4.43 0 0 0-2.627-5.689m-139.438 8.317h.002c.283-.099 2.472-.775 5.386-.77a18.6 18.6 0 0 1 4.492.541c2.392.602 4.923 1.742 7.453 3.936 2.524 2.199 5.079 5.497 7.291 10.58l4.064-1.766 1.689-4.096c-.138-.057-2.338-.959-5.777-1.862s-8.118-1.815-13.277-1.819c-4.349.003-9.078.654-13.61 2.678-2.234 1-3.233 3.622-2.233 5.856a4.43 4.43 0 0 0 5.855 2.233c3.039-1.366 6.527-1.907 9.988-1.905 4.093-.003 8.098.756 11.026 1.528 1.465.384 2.663.769 3.476 1.051l.918.332.216.084.042.017.005.002.89-2.179-.897 2.176.007.003.89-2.179-.897 2.176a4.43 4.43 0 0 0 5.753-5.862c-1.766-4.065-3.826-7.408-6.085-10.124-3.384-4.079-7.234-6.714-10.971-8.25-3.739-1.544-7.329-2.014-10.308-2.013-4.841.008-8.125 1.202-8.449 1.315a4.431 4.431 0 0 0 3.061 8.317" fill="#2d2118"/><g fill="#c04841"><path d="M136.104 289.829c3.79-14.531 21.11-27.281 45.329-27.281 24.242 0 53.734 15.562 48.461 38.515-6.25 27.282-30.141 9.039-48.086 9.039-17.993 0-23.813 7.821-35.547 5.399-11.719-2.391-13.282-13.625-10.157-25.672"/><path d="M136.104 289.829l3.026.789c.828-3.177 2.413-6.318 4.712-9.255 3.445-4.405 8.499-8.337 14.87-11.157s14.05-4.532 22.721-4.532c5.271-.001 10.867.783 16.255 2.262 8.086 2.21 15.69 6.005 21.097 10.842 2.708 2.415 4.867 5.077 6.335 7.907s2.262 5.825 2.265 9.049c0 1.486-.171 3.025-.539 4.631-.619 2.706-1.409 4.842-2.293 6.495-1.338 2.484-2.815 3.882-4.483 4.786-1.67.894-3.656 1.3-6.039 1.302-2.116.001-4.51-.332-7.062-.867-3.831-.8-8.007-2.047-12.26-3.121-4.257-1.068-8.598-1.979-12.901-1.984-8.18-.009-14.132 1.572-18.925 3.074-2.397.749-4.502 1.466-6.466 1.973s-3.784.815-5.712.816c-1.196 0-2.442-.118-3.813-.4l-.006-.002c-1.768-.361-3.159-.936-4.277-1.65-1.668-1.079-2.788-2.468-3.586-4.298-.789-1.825-1.198-4.11-1.196-6.721-.001-2.782.461-5.915 1.303-9.153v.003l-3.026-.789-3.026-.786c-.944 3.643-1.502 7.263-1.504 10.725.001 2.164.22 4.269.724 6.274.751 3 2.178 5.804 4.436 8.019 2.251 2.219 5.279 3.771 8.901 4.503l-.006-.002c1.774.367 3.463.53 5.076.53 2.607.001 4.999-.426 7.278-1.016 3.427-.893 6.62-2.12 10.328-3.096s7.947-1.748 13.497-1.752c2.262-.001 4.755.335 7.37.871 3.926.799 8.114 2.043 12.31 3.115 4.201 1.066 8.411 1.979 12.543 1.986 2.058 0 4.106-.234 6.09-.841 1.486-.453 2.932-1.12 4.277-2.032 2.021-1.367 3.787-3.276 5.208-5.696s2.527-5.35 3.335-8.87c.469-2.044.697-4.059.697-6.027.006-5.708-1.935-10.951-5.103-15.425-4.764-6.725-12.187-11.866-20.549-15.414-8.373-3.536-17.725-5.469-26.553-5.474-12.659.001-23.629 3.33-32.009 8.683-4.19 2.678-7.734 5.863-10.506 9.405s-4.772 7.442-5.839 11.531l-.001.003 3.026.786"/></g><g fill="#f5c2a6"><path d="M91.886 337.024l-7.813 24.735-21.836-8.18 8.844-27.047 20.805 10.492"/><path d="M91.886 337.024l-3.381-1.068-6.687 21.172-15.156-5.677 6.506-19.896 17.121 8.634 1.597-3.165-3.381-1.068 3.381 1.068 1.596-3.165-20.805-10.492a3.53 3.53 0 0 0-2.956-.109c-.96.399-1.687 1.185-2.009 2.172l-8.844 27.047a3.54 3.54 0 0 0 2.126 4.421l21.836 8.18a3.54 3.54 0 0 0 2.795-.133c.876-.426 1.535-1.191 1.828-2.119l7.813-24.734c.522-1.653-.236-3.453-1.784-4.233l-1.596 3.165m30.25-32.14s5.039-2.18 8.242 2.82c3.203 5.016-4.274 11.852-10.914 11.539-6.641-.344-8.93-9.484 2.672-14.359"/><path d="M122.136 304.884l1.409 3.252-.76-1.755.702 1.779.058-.024-.76-1.755.702 1.779h.001a3.89 3.89 0 0 1 1.232-.205c.432.001.848.075 1.253.275.405.209.866.537 1.42 1.386l-.003-.004c.169.278.2.427.208.676.003.295-.109.793-.484 1.414-.547.928-1.672 2.023-3.027 2.788-1.351.779-2.901 1.225-4.181 1.217-.093 0-.198-.002-.312-.007l-.13 3.543.183-3.54c-.853-.051-1.349-.334-1.664-.642-.307-.319-.471-.669-.48-1.207.003-.543.198-1.352 1.062-2.394.86-1.031 2.415-2.249 4.943-3.308l.037-.016-1.409-3.252-1.373-3.269c-3.335 1.403-5.868 3.192-7.632 5.292-1.759 2.089-2.722 4.534-2.718 6.947-.009 2.357.937 4.616 2.561 6.225 1.618 1.621 3.874 2.584 6.306 2.704l.054.003.572.01c1.858-.001 3.648-.386 5.309-1.019 2.489-.957 4.706-2.455 6.434-4.358.861-.954 1.599-2.018 2.145-3.207s.893-2.512.894-3.924c.007-1.52-.437-3.12-1.323-4.493l-.002-.003c-1.158-1.823-2.671-3.143-4.239-3.913-1.568-.778-3.125-1.015-4.404-1.014-2.243.013-3.721.658-3.994.766l1.41 3.253-1.373-3.269 1.373 3.269m-24.235-28.946s9.078-4.336 16.875 2.094c7.828 6.422 11.227 21.367 11.227 21.367l-28.102-23.461"/><path d="M97.901 275.938l1.528 3.199-.557-1.168.538 1.177.019-.009-.557-1.168.538 1.177c.063-.04 2.526-1.107 5.51-1.093 1.183 0 2.443.155 3.718.565s2.572 1.07 3.883 2.149l.007.005c1.535 1.254 3.011 3.09 4.287 5.167 1.921 3.113 3.392 6.732 4.344 9.536.478 1.402.83 2.602 1.06 3.44l.253.966.059.242.013.055.003.009 1.079-.248-1.08.246.001.002 1.079-.248-1.08.246 3.457-.786 2.272-2.721-28.102-23.461-2.272 2.721 1.528 3.199-1.528-3.199-2.272 2.721 28.102 23.461c1.167.974 2.826 1.096 4.123.302s1.942-2.327 1.605-3.809c-.028-.118-.911-4.005-2.846-8.814-.97-2.405-2.202-5.045-3.762-7.578s-3.447-4.972-5.826-6.93l.007.006a18.77 18.77 0 0 0-6.225-3.429 19.23 19.23 0 0 0-5.887-.905c-4.867.018-8.265 1.656-8.547 1.777a3.54 3.54 0 0 0-.744 5.919l2.272-2.721"/><path d="M103.565 334.36c9.024-9.75.914-13.797.914-13.797s3.813-1.765 7.032-5.14c3.203-3.422-1.211-4.383 2.07-5.563 3.242-1.195 10.742-3.593 8.945-9.601-1.211-4.008-15-24.071-28.179-23.727-13.188.406-27.149 24.094-27.188 29.047-.18 19.344 10.899 35.008 10.899 35.008s18.101 1.726 25.507-6.227"/><path d="M103.565 334.36l2.602 2.408c1.799-1.946 3.082-3.783 3.938-5.573.854-1.784 1.269-3.543 1.267-5.181.003-1.471-.336-2.814-.843-3.918-.763-1.664-1.843-2.79-2.714-3.522-.878-.733-1.575-1.092-1.753-1.183l-1.583 3.172 1.49 3.217c.109-.051 1.195-.558 2.723-1.532s3.504-2.411 5.384-4.379l.023-.025c.683-.73 1.232-1.496 1.618-2.339.388-.837.583-1.761.578-2.582-.001-1.072-.293-1.896-.438-2.307l-.085-.234-.021-.061-1.274.413 1.31-.271-.036-.142-1.274.413 1.31-.271-2.409.498h2.457a2.43 2.43 0 0 0-.048-.498l-2.409.498h2.457-2.843l2.59 1.168c.184-.399.258-.852.253-1.168h-2.843l2.59 1.168-2.509-1.132 2.034 1.859a2.79 2.79 0 0 0 .475-.727l-2.509-1.132 2.034 1.859-1.442-1.318.962 1.715c.054-.032.235-.132.48-.397l-1.442-1.318.962 1.715-.232-.414.21.426.022-.012-.232-.414.21.426s.058-.027.171-.068l.031-.011 2.798-1.063c1.673-.703 3.621-1.629 5.379-3.156.875-.766 1.707-1.704 2.338-2.878a8.54 8.54 0 0 0 1.023-4.061 9.72 9.72 0 0 0-.422-2.784l-.003-.011c-.151-.491-.331-.922-.545-1.388-.402-.864-.934-1.825-1.6-2.909-2.328-3.771-6.295-9.017-11.265-13.52-2.488-2.247-5.227-4.305-8.199-5.85-2.967-1.537-6.205-2.58-9.629-2.584-.122 0-.286 0-.491.009l.156 3.541-.11-3.543c-2.171.067-4.26.608-6.226 1.44-3.441 1.465-6.555 3.804-9.39 6.505-4.243 4.06-7.853 8.976-10.49 13.386-1.317 2.208-2.385 4.283-3.159 6.114-.387.918-.702 1.773-.938 2.592-.231.828-.404 1.589-.42 2.525v-.006l-.002.499c.006 10.243 2.894 19.316 5.746 25.863 2.859 6.547 5.706 10.584 5.805 10.726a3.53 3.53 0 0 0 2.559 1.483c.085.007 1.847.173 4.514.173 3.074-.003 7.339-.213 11.691-1.202 2.177-.497 4.381-1.19 6.477-2.194s4.088-2.329 5.755-4.117l.008-.008-2.602-2.408-2.594-2.416c-.914.984-2.15 1.845-3.635 2.557-2.222 1.071-4.979 1.778-7.688 2.179s-5.366.52-7.412.52c-1.186 0-2.168-.038-2.843-.074l-.769-.049-.187-.016-.041-.003h-.006l-.129 1.386.132-1.386h-.003l-.129 1.386.132-1.386-.335 3.529 2.894-2.047-1.654 1.169 1.656-1.166-.002-.003-1.654 1.169 1.656-1.166s-.037-.052-.111-.163c-.562-.828-3.131-4.773-5.529-10.586-2.404-5.815-4.618-13.484-4.613-21.75l.003-.432v-.005l-.347-.003.346.03.001-.027-.347-.003.346.03c0-.027.034-.253.124-.572.166-.607.516-1.551 1.021-2.652.884-1.934 2.238-4.378 3.908-6.899 2.501-3.786 5.738-7.766 9.126-10.692 1.69-1.465 3.413-2.662 5.048-3.472s3.165-1.232 4.526-1.272l.046-.002c.018-.001.078-.002.18-.002 1.186 0 2.446.225 3.769.671 2.313.775 4.796 2.248 7.173 4.128 3.571 2.812 6.894 6.51 9.351 9.77 1.23 1.628 2.248 3.149 2.978 4.367.364.608.657 1.14.861 1.552.204.404.319.714.319.725l-.003-.011c.098.331.125.573.125.755a1.4 1.4 0 0 1-.078.479c-.087.249-.279.57-.682.96-.593.584-1.639 1.228-2.783 1.748-1.147.53-2.35.95-3.358 1.319l.032-.011a8.31 8.31 0 0 0-1.09.472c-.538.29-1.15.688-1.701 1.414-.27.359-.504.797-.648 1.253s-.202.911-.201 1.299c.004.666.134 1.123.226 1.435.148.466.234.661.25.726l.006.018.845-.217h-.868a.94.94 0 0 0 .023.217l.845-.217h-.868.861l-.797-.364a.98.98 0 0 0-.064.364h.861l-.797-.364-.011.02c-.029.049-.124.196-.336.422l.023-.025c-1.338 1.407-2.878 2.541-4.061 3.293-.592.376-1.092.659-1.432.84l-.379.197-.082.04-.001.001a3.53 3.53 0 0 0-2.055 3.165c-.02 1.367.738 2.612 1.962 3.223l.953-1.91-1.009 1.881.056.029.953-1.91-1.009 1.881.173-.322-.178.32.005.002.173-.322-.178.32a3.51 3.51 0 0 1 .845.718c.178.211.328.442.43.691s.169.519.171.901c-.002.465-.105 1.137-.575 2.128-.469.985-1.317 2.27-2.744 3.811l.008-.009 2.594 2.416"/></g><g fill="#ec988f"><path d="M83.98 315.024c.049.067 2.258 3.232 5.395 6.488 1.574 1.629 3.375 3.285 5.342 4.603.986.658 2.016 1.235 3.11 1.663s2.261.711 3.499.713c1.108.003 2.272-.246 3.334-.8 1.064-.549 2.001-1.381 2.768-2.409l.123-.18c.074-.118.403-.658.73-1.539s.652-2.111.654-3.595a9.69 9.69 0 0 0-.88-4.039l-.006-.013c-1.281-2.764-3.14-5.306-5.185-7.617-3.072-3.46-6.582-6.395-9.343-8.496s-4.771-3.354-4.822-3.386a2.66 2.66 0 0 0-3.663.849 2.66 2.66 0 0 0 .849 3.663l.003.002c.142.088 3.533 2.23 7.365 5.467 1.915 1.617 3.94 3.508 5.717 5.525s3.302 4.162 4.252 6.224l-.006-.012c.302.665.4 1.265.402 1.833.001.68-.16 1.31-.323 1.749a4.48 4.48 0 0 1-.212.487l-.05.095-.003.005.977.572-.959-.602-.018.03.977.572-.959-.602 2.252 1.414-2.129-1.593c-.372.494-.688.734-.957.875s-.526.2-.888.204c-.398.001-.931-.099-1.562-.347-1.106-.427-2.464-1.304-3.792-2.411-2.001-1.656-3.948-3.795-5.359-5.5-.707-.853-1.284-1.599-1.679-2.126l-.452-.612-.113-.157-.026-.037-.005-.007a2.66 2.66 0 0 0-3.703-.655 2.66 2.66 0 0 0-.655 3.703"/><path d="M87.682 319.734l.001.002c.043.086.679 1.408 1.287 3.281s1.18 4.296 1.175 6.488c.001 1.717-.336 3.226-1.056 4.361a2.66 2.66 0 0 0 .833 3.666 2.66 2.66 0 0 0 3.667-.833c1.428-2.28 1.871-4.824 1.873-7.194-.007-3.153-.77-6.115-1.505-8.344s-1.471-3.706-1.509-3.785a2.66 2.66 0 0 0-3.562-1.203 2.66 2.66 0 0 0-1.203 3.562m19.554 2.479c.145 0 .866-.005 1.899-.112 1.553-.171 3.795-.524 5.958-1.631 1.076-.561 2.157-1.338 3.006-2.479.852-1.131 1.392-2.649 1.381-4.268-.001-1.251-.289-2.545-.833-3.887s-1.348-2.747-2.441-4.265c-1.862-2.583-4.188-5.175-6.641-7.646-7.35-7.394-15.869-13.703-15.925-13.748a2.66 2.66 0 0 0-3.719.551 2.66 2.66 0 0 0 .552 3.72l.036.027c.409.305 4.169 3.129 8.628 7.007 2.229 1.938 4.633 4.14 6.873 6.41s4.317 4.612 5.881 6.786c.904 1.253 1.487 2.312 1.829 3.156s.443 1.466.443 1.889c-.003.368-.066.597-.158.803a1.86 1.86 0 0 1-.375.528c-.305.316-.823.653-1.478.925-.977.415-2.217.671-3.198.791s-1.711.126-1.718.126a2.66 2.66 0 0 0-2.658 2.659 2.66 2.66 0 0 0 2.658 2.658"/><path d="M116.526 313.793c.158-.029 2.527-.318 5.145-1.579 1.307-.638 2.703-1.533 3.853-2.902.571-.684 1.073-1.49 1.424-2.411s.547-1.947.546-3.028c0-1.323-.285-2.712-.849-4.153s-1.408-2.947-2.562-4.553c-4.515-6.273-10.052-11.244-14.471-14.685s-7.732-5.336-7.811-5.382a2.66 2.66 0 0 0-3.629.986 2.66 2.66 0 0 0 .986 3.629h.002c.116.067 3.263 1.892 7.383 5.117s9.208 7.849 13.223 13.439c.95 1.321 1.563 2.454 1.927 3.386s.484 1.659.484 2.216a3.11 3.11 0 0 1-.197 1.132c-.211.553-.597 1.05-1.182 1.526-.864.711-2.152 1.266-3.206 1.58-.525.16-.99.267-1.309.331a11.57 11.57 0 0 1-.361.066l-.08.012-.012.002.164 1.192-.155-1.194-.009.002.164 1.192-.155-1.194a2.66 2.66 0 0 0-2.293 2.981 2.66 2.66 0 0 0 2.981 2.293"/><path d="M71.876 293.081l.001-.003c.072-.12 2.003-3.29 5.053-6.931 1.523-1.819 3.326-3.755 5.292-5.482s4.096-3.244 6.232-4.254c3.931-1.87 9.312-3.242 14.559-3.234 3.409-.001 6.753.568 9.666 1.844 2.918 1.284 5.415 3.231 7.331 6.159 2.449 3.752 4.508 6.858 5.888 9.431.691 1.284 1.21 2.432 1.543 3.436s.482 1.86.482 2.603c-.006.895-.189 1.654-.666 2.542-.48.881-1.3 1.885-2.601 3.007a2.66 2.66 0 0 0-.275 3.75 2.66 2.66 0 0 0 3.75.276c1.638-1.416 2.913-2.877 3.792-4.484.882-1.6 1.324-3.353 1.317-5.091 0-1.448-.285-2.871-.753-4.279-.705-2.114-1.813-4.221-3.182-6.518s-3.016-4.778-4.841-7.578c-2.497-3.839-5.913-6.496-9.654-8.125-3.746-1.636-7.808-2.289-11.797-2.29-6.152.008-12.153 1.535-16.836 3.746-2.783 1.321-5.311 3.162-7.571 5.158-3.386 2.997-6.174 6.36-8.144 8.992s-3.11 4.53-3.145 4.587a2.66 2.66 0 0 0 .911 3.648 2.66 2.66 0 0 0 3.648-.91"/><path d="M128.027 305.649l.323-.826-.331.822.008.004.323-.826-.331.822a11.71 11.71 0 0 1 2.602 1.556c.595.476 1.132 1.038 1.479 1.599.348.569.522 1.094.526 1.718-.003.568-.148 1.286-.708 2.278l.004-.007c-.471.826-1.199 1.71-2.099 2.541-1.349 1.248-3.081 2.369-4.789 3.139-1.701.778-3.398 1.182-4.504 1.172-.402 0-.718-.049-.927-.11-.158-.046-.253-.095-.308-.131l-.135-.153c-.043-.089-.119-.303-.12-.741a5.04 5.04 0 0 1 .076-.828 2.66 2.66 0 0 0-2.178-3.064 2.66 2.66 0 0 0-3.064 2.179 10.18 10.18 0 0 0-.151 1.713c-.001.955.154 1.887.512 2.747a5.72 5.72 0 0 0 1.119 1.736c.706.75 1.584 1.258 2.47 1.555.891.301 1.799.412 2.706.413 1.475-.002 2.966-.296 4.461-.776 2.239-.727 4.488-1.887 6.509-3.362 2.015-1.48 3.812-3.264 5.036-5.387l.005-.008c.937-1.641 1.406-3.318 1.402-4.906.004-1.802-.597-3.4-1.404-4.647-1.222-1.881-2.846-3.098-4.147-3.919-1.307-.813-2.324-1.213-2.429-1.256a2.66 2.66 0 0 0-3.444 1.509 2.66 2.66 0 0 0 1.509 3.444"/></g><g fill="#e77a6b"><path d="M55.128 343.048l42.695 16.437s-11.758 37.047-32.172 50.688c-37.242 24.844-42.422-30.258-10.523-67.125"/><path d="M55.128 343.048l-1.274 3.308 42.696 16.437 1.273-3.308-3.379-1.072-.005.016c-.142.449-3.114 9.613-8.469 20.2-2.675 5.292-5.946 10.937-9.712 16.008s-8.029 9.556-12.576 12.588l.002-.001c-3.053 2.037-5.815 3.459-8.248 4.356s-4.528 1.272-6.284 1.272c-1.935-.006-3.459-.432-4.782-1.178-.992-.564-1.881-1.326-2.691-2.328-1.212-1.498-2.229-3.553-2.928-6.107s-1.079-5.584-1.078-8.951c-.005-6.941 1.609-15.278 4.951-23.807s8.392-17.267 15.184-25.114l-2.68-2.319-1.274 3.308 1.274-3.308-2.681-2.32c-7.354 8.5-12.8 17.909-16.425 27.169s-5.434 18.374-5.439 26.391c.001 3.46.34 6.72 1.048 9.715 1.062 4.48 2.956 8.418 5.929 11.335 1.482 1.452 3.235 2.625 5.199 3.413s4.123 1.191 6.393 1.19c2.756-.001 5.672-.578 8.74-1.711s6.301-2.824 9.726-5.108l.003-.002c5.587-3.74 10.383-8.909 14.523-14.519 6.2-8.419 10.919-17.875 14.133-25.262s4.898-12.698 4.925-12.781a3.55 3.55 0 0 0-2.105-4.381l-42.696-16.438c-1.399-.538-2.973-.145-3.954.989l2.681 2.32"/></g><g fill="#f5c2a6"><path d="M270.323 337.024l7.789 24.735 21.836-8.18-8.867-27.047-20.758 10.492"/><path d="M270.323 337.024l-3.381 1.065 7.789 24.734a3.54 3.54 0 0 0 4.624 2.255l21.836-8.18a3.54 3.54 0 0 0 2.125-4.423l-8.867-27.047c-.324-.988-1.051-1.773-2.011-2.171a3.53 3.53 0 0 0-2.956.111l-20.758 10.492a3.55 3.55 0 0 0-1.782 4.229l3.381-1.065 1.599 3.164 17.076-8.631 6.522 19.895-15.15 5.675-6.666-21.168-3.381 1.065 1.599 3.164-1.599-3.164m-30.273-32.14s-5.039-2.18-8.242 2.82c-3.204 5.016 4.273 11.852 10.914 11.539 6.625-.344 8.906-9.484-2.672-14.359"/><path d="M240.05 304.884l1.408-3.253c-.271-.108-1.75-.753-3.994-.766-1.279-.001-2.836.236-4.404 1.014-1.568.77-3.081 2.09-4.238 3.914l-.002.002c-.885 1.371-1.331 2.971-1.323 4.493.003 1.887.616 3.603 1.5 5.072 1.342 2.207 3.304 3.973 5.582 5.284 2.281 1.298 4.909 2.145 7.699 2.152l.572-.01.056-.003c2.429-.12 4.683-1.085 6.297-2.706 1.62-1.609 2.562-3.866 2.553-6.22.004-2.412-.957-4.857-2.712-6.946-1.76-2.1-4.29-3.892-7.619-5.295l-1.375 3.268 1.408-3.253-1.408 3.253-1.376 3.267c2.521 1.059 4.073 2.276 4.931 3.307.863 1.042 1.059 1.853 1.062 2.399-.009.539-.174.89-.479 1.208-.313.306-.803.587-1.651.638l.185 3.54-.129-3.543-.315.007c-.855.001-1.826-.188-2.781-.554-1.435-.54-2.813-1.492-3.701-2.486-.446-.492-.77-.988-.96-1.405s-.251-.749-.25-.974a1.17 1.17 0 0 1 .208-.675l-.001.002c.553-.849 1.014-1.176 1.418-1.385.405-.2.821-.274 1.253-.275a3.98 3.98 0 0 1 .969.125l.243.072.02.008.003.001.625-1.603-.683 1.578.058.025.625-1.603-.683 1.578.033.015 1.376-3.267m24.234-28.946s-9.062-4.336-16.89 2.094c-7.813 6.422-11.954 22.547-11.954 22.547l28.844-24.641"/><path d="M264.284 275.938l1.53-3.197c-.283-.122-3.677-1.76-8.545-1.778-1.803 0-3.811.237-5.891.905s-4.22 1.767-6.235 3.425c-2.393 1.976-4.307 4.482-5.932 7.113-2.427 3.948-4.19 8.215-5.385 11.534s-1.799 5.68-1.819 5.757c-.384 1.493.249 3.074 1.557 3.89s3.006.688 4.179-.313l28.843-24.641c.91-.778 1.368-1.968 1.213-3.156a3.55 3.55 0 0 0-1.985-2.736l-1.53 3.197-2.303-2.695-28.843 24.641 2.302 2.695 3.434.881v-.002c.035-.139 1.066-4.06 2.976-8.598.952-2.267 2.124-4.686 3.462-6.84 1.332-2.156 2.842-4.033 4.333-5.25 1.316-1.08 2.619-1.739 3.898-2.152s2.542-.565 3.726-.565c1.592-.002 3.033.289 4.043.578.504.144.9.287 1.152.386.126.049.216.087.265.108l.044.02.528-1.153-.547 1.144.019.009.528-1.153-.547 1.144 1.53-3.198-2.303-2.695 2.303 2.695"/><path d="M258.644 334.36c-9.047-9.75-.961-13.797-.961-13.797s-3.805-1.765-7.008-5.14c-3.203-3.422 1.226-4.383-2.055-5.563-3.258-1.195-10.758-3.593-8.961-9.601 1.211-4.008 15.016-24.071 28.18-23.727 13.187.406 27.148 24.094 27.187 29.047.157 19.344-10.898 35.008-10.898 35.008s-18.102 1.726-25.484-6.227"/><path d="M258.644 334.36l2.598-2.411c-1.436-1.547-2.29-2.836-2.762-3.826s-.576-1.667-.579-2.131a2.27 2.27 0 0 1 .202-.969c.176-.397.504-.769.807-1.021.148-.124.282-.215.357-.262l.062-.038-.732-1.311.671 1.342.061-.031-.732-1.311.671 1.342c1.213-.607 1.979-1.865 1.959-3.222s-.822-2.593-2.052-3.163l-.002-.001c-.106-.051-.966-.472-2.11-1.222s-2.57-1.826-3.817-3.143l.017.018c-.14-.149-.23-.265-.282-.339l-.062-.098-.001-.001-.816.367.88.001a1 1 0 0 0-.064-.368l-.816.367.88.001h-.93l.909.214a1 1 0 0 0 .021-.214h-.93l.909.214c.008-.033.06-.17.172-.481l.189-.638c.064-.276.126-.63.127-1.069a4.25 4.25 0 0 0-.375-1.748c-.197-.439-.469-.829-.753-1.138-.431-.468-.872-.768-1.281-1s-.808-.396-1.221-.546l.022.008-2.539-.958c-1.331-.542-2.662-1.253-3.431-1.941-.389-.34-.632-.652-.762-.895a1.42 1.42 0 0 1-.181-.71 2.56 2.56 0 0 1 .124-.742v-.003a4.66 4.66 0 0 1 .189-.453c.23-.497.648-1.27 1.208-2.178 1.963-3.2 5.672-8.089 9.986-11.976 2.154-1.949 4.459-3.651 6.711-4.817 2.255-1.173 4.42-1.792 6.357-1.788a3.06 3.06 0 0 1 .183.003l.043.001c1.125.034 2.358.322 3.68.882 2.312.972 4.851 2.796 7.258 5.104 3.621 3.452 6.953 7.951 9.299 11.892 1.175 1.967 2.109 3.799 2.716 5.24.304.718.526 1.339.654 1.79.065.225.107.407.127.523l.018.118.001.011.528-.033-.529.005.001.028.528-.033-.529.005.001.378c.007 8.9-2.556 17.114-5.154 23.069-1.297 2.976-2.595 5.384-3.557 7.03a48.41 48.41 0 0 1-1.149 1.873l-.307.463-.071.105-.014.02-.001.002 1.684 1.182-1.682-1.186-.002.004 1.684 1.182-1.682-1.186 2.897 2.044-.336-3.529.132 1.386-.129-1.386h-.003l.132 1.386-.129-1.386c-.016.001-1.548.142-3.845.142-2.728.003-6.544-.207-10.111-1.025-1.782-.406-3.498-.961-4.975-1.673s-2.713-1.571-3.622-2.553l-5.197 4.822c1.663 1.79 3.657 3.115 5.747 4.121 3.14 1.504 6.522 2.321 9.699 2.8s6.154.597 8.459.597c2.666 0 4.428-.166 4.513-.173 1.034-.099 1.962-.638 2.561-1.486.099-.142 2.945-4.187 5.803-10.745 2.852-6.558 5.738-15.645 5.745-25.9l-.001-.432c-.009-.719-.119-1.322-.266-1.944-.282-1.154-.729-2.36-1.321-3.705-1.037-2.341-2.527-5.064-4.38-7.906-2.782-4.258-6.354-8.76-10.467-12.371-2.061-1.804-4.261-3.388-6.62-4.575s-4.894-1.979-7.569-2.063l-.109 3.543.152-3.542c-.203-.008-.367-.008-.488-.008-2.082 0-4.106.392-6.031 1.042-3.372 1.144-6.469 3.055-9.295 5.28-4.234 3.345-7.872 7.429-10.622 11.063-1.373 1.819-2.52 3.524-3.403 4.995-.442.737-.818 1.415-1.129 2.041-.312.634-.56 1.189-.757 1.831v-.003c-.283.934-.428 1.878-.427 2.797-.002.986.169 1.947.476 2.82.538 1.537 1.459 2.765 2.454 3.722 1.503 1.438 3.194 2.364 4.741 3.084 1.543.709 2.984 1.2 3.889 1.534l.022.008.142.055.024.011h.001l.905-1.767-1.543 1.194c.355.446.624.56.638.573l.905-1.767-1.543 1.194 2.236-1.73-2.682.888c.104.32.275.624.446.842l2.236-1.73-2.682.888 2.691-.891h-2.836a2.87 2.87 0 0 0 .145.891l2.691-.891h-2.836 2.168l-2.083-.642c-.006.031-.08.225-.085.642h2.168l-2.083-.642.391.121-.39-.126-.001.005.391.121-.39-.126c.005.002-.109.274-.253.727a6.34 6.34 0 0 0-.299 1.894c-.005.822.19 1.746.579 2.582s.934 1.605 1.614 2.333l.018.018c1.872 1.97 3.843 3.407 5.368 4.383s2.609 1.481 2.718 1.533l1.493-3.216-1.586-3.17c-.237.125-1.398.71-2.663 2.048-.628.67-1.281 1.542-1.785 2.646s-.84 2.44-.837 3.905c-.002 1.642.415 3.403 1.273 5.192s2.15 3.636 3.96 5.587l2.599-2.411"/></g><g fill="#ec988f"><path d="M273.865 311.974l-.002.003a55.05 55.05 0 0 1-5.009 5.978c-1.391 1.429-2.953 2.82-4.42 3.785-.732.484-1.437.86-2.057 1.097s-1.145.338-1.539.337c-.364-.004-.618-.066-.891-.204s-.585-.381-.955-.873l-2.13 1.591 2.251-1.414-1.372.862 1.389-.834-.017-.028-1.372.862 1.389-.834-.246.148.248-.146-.002-.002-.246.148.248-.146a4.17 4.17 0 0 1-.305-.703 5.02 5.02 0 0 1-.276-1.606 4.31 4.31 0 0 1 .41-1.843l.002-.005c.965-2.094 2.522-4.276 4.339-6.319 2.722-3.07 6.005-5.83 8.591-7.792a74.43 74.43 0 0 1 3.199-2.302l.917-.609.237-.152.056-.036.013-.008a2.66 2.66 0 0 0 .851-3.662 2.66 2.66 0 0 0-3.663-.851c-.068.044-3.622 2.258-7.796 5.754-2.088 1.75-4.333 3.821-6.382 6.128s-3.908 4.854-5.189 7.618l.002-.004c-.665 1.428-.906 2.848-.904 4.083.002 1.477.327 2.701.65 3.576s.654 1.413.727 1.531l.121.178c.768 1.03 1.705 1.862 2.77 2.412s2.228.802 3.336.799c1.239-.002 2.408-.286 3.502-.712 1.914-.753 3.647-1.941 5.259-3.268 2.406-1.994 4.523-4.337 6.073-6.199s2.516-3.242 2.546-3.285a2.66 2.66 0 0 0-.65-3.702c-1.202-.844-2.86-.553-3.702.65"/><path d="M269.753 317.376c-.038.078-.771 1.563-1.513 3.791s-1.501 5.199-1.508 8.355c.002 2.363.441 4.899 1.863 7.173a2.66 2.66 0 0 0 3.665.839 2.66 2.66 0 0 0 .839-3.665c-.716-1.131-1.051-2.635-1.05-4.347-.006-2.264.601-4.782 1.237-6.677l.867-2.297.278-.628.071-.152.016-.032v-.001a2.66 2.66 0 0 0-1.203-3.562 2.66 2.66 0 0 0-3.562 1.203m-14.805-.479c-.006 0-.558-.001-1.349-.084-1.185-.112-2.922-.457-4.054-1.06-.571-.295-.966-.627-1.182-.922-.212-.306-.324-.553-.336-1.101 0-.422.1-1.042.445-1.889s.928-1.905 1.835-3.159l.003-.005c1.611-2.244 3.769-4.668 6.089-7.004 3.481-3.509 7.328-6.834 10.291-9.266l3.632-2.899 1.033-.791.27-.204.086-.064a2.66 2.66 0 0 0 .552-3.719 2.66 2.66 0 0 0-3.719-.552c-.035.026-3.838 2.847-8.541 6.908-2.352 2.032-4.928 4.372-7.378 6.841s-4.775 5.063-6.633 7.648l.004-.006c-1.097 1.52-1.902 2.925-2.45 4.27s-.835 2.638-.836 3.891c-.002 1.077.225 2.115.642 3.018.362.792.86 1.474 1.415 2.037.976.989 2.106 1.632 3.209 2.099 1.66.693 3.306.998 4.594 1.163a20.16 20.16 0 0 0 2.378.167 2.66 2.66 0 0 0 2.658-2.658 2.66 2.66 0 0 0-2.658-2.659"/><path d="M246.331 308.52l-.193 1.479.201-1.477-.008-.002-.193 1.479.201-1.477-.077-.012c-.401-.056-2.299-.433-3.82-1.277-.764-.414-1.41-.927-1.81-1.46-.202-.268-.352-.539-.457-.839a3.16 3.16 0 0 1-.17-1.057c.001-.558.119-1.282.484-2.217s.978-2.066 1.929-3.388c4.081-5.68 9.262-10.366 13.413-13.593 2.075-1.615 3.89-2.868 5.177-3.712.643-.422 1.154-.74 1.499-.951l.39-.235.094-.055.02-.012.002-.001a2.66 2.66 0 0 0 .984-3.628 2.66 2.66 0 0 0-3.629-.984c-.079.045-3.386 1.944-7.803 5.382s-9.949 8.411-14.463 14.684c-1.156 1.607-1.998 3.112-2.564 4.556s-.85 2.832-.85 4.154c-.001 1.08.194 2.108.546 3.026.616 1.617 1.678 2.854 2.8 3.762 1.695 1.362 3.55 2.086 4.999 2.533 1.449.441 2.508.581 2.61.595a2.66 2.66 0 0 0 2.981-2.292 2.66 2.66 0 0 0-2.292-2.98"/><path d="M296.304 292.139c-.041-.064-2.409-3.857-6.081-8.295-1.838-2.22-4.001-4.603-6.391-6.771s-5.004-4.127-7.823-5.467c-4.683-2.21-10.681-3.738-16.83-3.746-3.988.001-8.049.654-11.795 2.29-3.741 1.629-7.158 4.285-9.661 8.122l-.002.003c-2.433 3.735-4.544 6.899-6.114 9.819-.783 1.463-1.434 2.868-1.901 4.277s-.751 2.83-.751 4.277c-.007 1.737.433 3.489 1.313 5.09.877 1.607 2.149 3.068 3.784 4.484a2.66 2.66 0 0 0 3.75-.27 2.66 2.66 0 0 0-.27-3.75c-1.299-1.122-2.116-2.126-2.595-3.008a5.13 5.13 0 0 1-.666-2.546c0-.744.148-1.597.481-2.604.497-1.507 1.421-3.332 2.697-5.466s2.89-4.583 4.726-7.399l-.002.003c1.922-2.929 4.423-4.877 7.342-6.161 2.914-1.276 6.256-1.845 9.664-1.844 5.243-.008 10.621 1.364 14.553 3.234 2.133 1.007 4.396 2.663 6.528 4.601 3.205 2.903 6.124 6.42 8.21 9.191 1.044 1.386 1.883 2.587 2.457 3.434l.655.986.164.256.039.062.01.015a2.66 2.66 0 0 0 3.663.847 2.66 2.66 0 0 0 .847-3.663"/><path d="M232.207 300.696c-.141.061-1.896.738-3.801 2.213-.95.743-1.949 1.694-2.758 2.947-.805 1.244-1.405 2.839-1.401 4.636-.003 1.598.472 3.29 1.427 4.944l-.005-.01c.81 1.419 1.883 2.681 3.099 3.808 1.826 1.687 3.982 3.074 6.197 4.079 2.222.997 4.483 1.634 6.691 1.644.806 0 1.612-.089 2.407-.319.596-.173 1.187-.429 1.739-.79.828-.537 1.552-1.335 2.004-2.278.458-.943.655-1.99.654-3.064a10.41 10.41 0 0 0-.147-1.702 2.66 2.66 0 0 0-3.054-2.192 2.66 2.66 0 0 0-2.192 3.055c.055.333.077.615.077.839-.001.388-.062.603-.105.706l-.078.129c-.035.034-.097.094-.306.167s-.548.134-.999.133c-.734.003-1.739-.166-2.823-.52-1.631-.525-3.444-1.452-4.997-2.593-1.558-1.134-2.848-2.493-3.546-3.734l-.006-.009c-.571-1.001-.717-1.721-.72-2.293.004-.638.187-1.176.558-1.761.544-.867 1.569-1.714 2.476-2.271.45-.281.863-.495 1.149-.633l.325-.148.071-.03-.014-.031.013.031h.001l-.014-.031.013.031a2.66 2.66 0 0 0 1.509-3.443 2.66 2.66 0 0 0-3.443-1.509"/></g><g fill="#e77a6b"><path d="M307.058 343.048l-42.672 16.437s11.758 37.047 32.164 50.688c37.226 24.844 31.64-31.406 10.508-67.125"/><path d="M307.058 343.048l-1.275-3.308-42.672 16.437a3.55 3.55 0 0 0-2.104 4.381c.037.112 3.021 9.517 8.639 20.742 2.811 5.615 6.281 11.687 10.415 17.301s8.934 10.778 14.519 14.519l.002.001c3.36 2.241 6.45 3.901 9.34 5.024s5.591 1.708 8.15 1.71c2.598.008 5.057-.644 7.116-1.914 1.545-.947 2.846-2.213 3.889-3.665 1.568-2.185 2.59-4.77 3.248-7.618s.945-5.987.946-9.349c-.006-8.178-1.717-17.741-4.696-27.515-2.984-9.768-7.246-19.723-12.467-28.551a3.54 3.54 0 0 0-4.325-1.503l1.275 3.308-3.052 1.804c4.894 8.269 8.967 17.764 11.788 27.013 2.827 9.242 4.393 18.26 4.387 25.444.001 2.62-.206 4.991-.607 7.016-.299 1.518-.706 2.84-1.192 3.931-.734 1.646-1.612 2.735-2.572 3.423-.486.347-1.003.607-1.608.793a7.23 7.23 0 0 1-2.13.294c-1.447.002-3.311-.347-5.585-1.23s-4.941-2.289-7.97-4.312l.003.002c-4.619-3.081-8.945-7.658-12.751-12.831-5.718-7.754-10.264-16.805-13.336-23.882a159.22 159.22 0 0 1-3.498-8.736l-.885-2.504-.219-.654-.053-.162-.011-.037-.003-.007-3.378 1.072 1.274 3.308 42.672-16.438-1.274-3.307-3.052 1.804 3.052-1.804"/></g><g fill="#5ca7d0"><path d="M268.894 240.352s20.101-2.109 29.593 12.665c10.078 15.687-7.992 19.039-12.07 9.359-5.102-12.109-4.047-17.563-17.523-22.024"/><path d="M268.894 240.352l.371 3.525-.146-1.379.138 1.38.008-.001-.146-1.379.138 1.38c.017-.002.871-.086 2.275-.086 2.622-.004 7.159.306 11.716 1.882 2.28.785 4.564 1.879 6.658 3.38s4.008 3.405 5.599 5.879c.949 1.476 1.573 2.767 1.948 3.843s.505 1.935.505 2.577c-.002.624-.113 1.046-.255 1.367-.219.471-.515.785-1.014 1.072-.494.277-1.202.468-2.001.466a5.68 5.68 0 0 1-2.924-.828c-.89-.554-1.609-1.322-2.08-2.431-1.223-2.899-2.084-5.422-2.93-7.755-.636-1.749-1.263-3.398-2.058-4.996-1.179-2.39-2.822-4.676-5.226-6.555-2.401-1.888-5.436-3.372-9.463-4.706l-1.113 3.365.371 3.525-.371-3.525-1.115 3.366c3.157 1.043 5.289 2.096 6.772 3.148 1.116.794 1.89 1.577 2.564 2.487 1.003 1.355 1.789 3.099 2.675 5.494.887 2.382 1.865 5.356 3.36 8.905a12.26 12.26 0 0 0 4.906 5.72c2.056 1.258 4.359 1.873 6.632 1.876 2.487-.003 5.018-.745 7.047-2.47a9.25 9.25 0 0 0 2.438-3.261c.58-1.29.876-2.745.874-4.264-.001-1.572-.307-3.213-.901-4.915s-1.48-3.474-2.676-5.337c-2.102-3.274-4.685-5.842-7.435-7.81-4.13-2.956-8.607-4.583-12.603-5.491s-7.541-1.096-9.9-1.097c-1.797 0-2.908.113-3.01.124-1.661.175-2.974 1.485-3.153 3.146s.825 3.22 2.41 3.745l1.115-3.366m47.171 41.563s10.43.547 19.141 9.555c12.984 13.414-6.742 21.523-10.805 11.828-5.093-12.102.508-10.438-8.336-21.383"/><path d="M316.065 281.915l-.186 3.54.064-1.224-.079 1.223.015.001.064-1.224-.079 1.223c.069.003 2.428.171 5.67 1.323a28.85 28.85 0 0 1 11.124 7.157c1.36 1.404 2.217 2.655 2.716 3.688s.65 1.84.652 2.465a3.18 3.18 0 0 1-.349 1.483c-.328.646-.937 1.264-1.773 1.721a5.93 5.93 0 0 1-2.791.717c-.842.001-1.582-.2-2.132-.527-.551-.338-.966-.757-1.31-1.552l-.003-.007c-1.195-2.843-1.711-4.737-1.993-6.199-.212-1.102-.292-1.985-.399-2.991l-.385-2.498c-.309-1.389-.884-2.91-1.841-4.581-.958-1.682-2.29-3.566-4.228-5.966l-2.757 2.228-.186 3.54.186-3.54-2.757 2.228c2.127 2.628 3.293 4.404 3.913 5.633.468.93.651 1.53.789 2.184.102.492.167 1.042.242 1.761.113 1.074.252 2.504.661 4.296s1.08 3.948 2.221 6.656l-.003-.007c.893 2.16 2.445 3.869 4.245 4.92 1.802 1.061 3.8 1.511 5.737 1.512 2.886-.012 5.714-.961 8.01-2.802 1.141-.923 2.144-2.09 2.861-3.487a10.27 10.27 0 0 0 1.131-4.722c.002-1.819-.462-3.704-1.36-5.555s-2.224-3.69-4.002-5.528c-4.827-4.991-10.139-7.645-14.238-9.045-4.106-1.4-7.024-1.57-7.264-1.584a3.54 3.54 0 0 0-2.943 5.768l2.757-2.228M97.136 240.352s-20.094-2.109-29.586 12.665c-10.063 15.687 8.008 19.039 12.086 9.359 5.101-12.109 4.023-17.563 17.5-22.024"/><path d="M97.136 240.352l.371-3.525c-.102-.011-1.213-.124-3.009-.124-3.144.004-8.392.333-14.023 2.268-2.813.97-5.725 2.35-8.476 4.32a28.52 28.52 0 0 0-7.432 7.81l-.001.001c-1.194 1.862-2.076 3.63-2.67 5.332s-.899 3.34-.899 4.912c-.002 1.519.294 2.975.873 4.266a9.38 9.38 0 0 0 4.047 4.378c1.695.937 3.572 1.356 5.445 1.358a12.74 12.74 0 0 0 6.633-1.876 12.26 12.26 0 0 0 4.907-5.719c1.33-3.157 2.248-5.858 3.058-8.093.607-1.678 1.153-3.087 1.734-4.252.884-1.755 1.763-2.952 3.259-4.147 1.499-1.186 3.743-2.369 7.297-3.543 1.584-.525 2.589-2.086 2.41-3.745a3.55 3.55 0 0 0-3.153-3.146l-.371 3.525-1.114-3.365c-3.583 1.187-6.371 2.489-8.638 4.093-1.697 1.199-3.078 2.578-4.172 4.073-1.65 2.253-2.648 4.665-3.601 7.227-.952 2.574-1.868 5.358-3.242 8.619-.472 1.108-1.191 1.877-2.082 2.43a5.64 5.64 0 0 1-2.925.829c-1.076.003-1.953-.339-2.442-.768a2.17 2.17 0 0 1-.579-.774c-.142-.322-.253-.745-.255-1.37 0-.643.128-1.499.504-2.576s.996-2.364 1.943-3.84l-.001.002a21.41 21.41 0 0 1 5.597-5.878c3.137-2.251 6.715-3.587 10.039-4.34a38.49 38.49 0 0 1 8.33-.922 29.93 29.93 0 0 1 1.732.047l.433.03.094.008.015.001.139-1.391-.147 1.39.008.001.139-1.391-.147 1.39.372-3.525-1.114-3.365 1.114 3.365m-47.149 41.563s-10.429.547-19.156 9.555c-12.953 13.414 6.734 21.523 10.82 11.828 5.078-12.102-.531-10.438 8.336-21.383"/><path d="M49.987 281.915l-.185-3.54c-.241.014-3.158.184-7.266 1.584a36.03 36.03 0 0 0-14.251 9.044l-.004.004c-1.773 1.837-3.095 3.672-3.992 5.526s-1.357 3.733-1.356 5.551c-.003 1.705.412 3.328 1.13 4.721 1.079 2.1 2.777 3.666 4.671 4.704 1.902 1.039 4.028 1.586 6.195 1.59 1.938-.001 3.936-.451 5.738-1.512 1.8-1.05 3.352-2.756 4.25-4.912l.003-.006c1.348-3.208 2.038-5.645 2.412-7.616.28-1.473.382-2.66.48-3.568l.25-1.688c.168-.719.412-1.437 1.089-2.635.675-1.186 1.793-2.798 3.591-5.016.881-1.089 1.039-2.592.404-3.84s-1.946-2.005-3.344-1.931l.185 3.54-2.754-2.231c-2.301 2.843-3.755 4.964-4.734 6.879-.732 1.429-1.174 2.767-1.417 3.974-.185.905-.269 1.709-.347 2.447l-.518 3.464c-.307 1.353-.83 3.081-1.834 5.478l.002-.006c-.348.799-.767 1.222-1.322 1.561-.552.329-1.292.529-2.134.528-.622.001-1.286-.111-1.904-.326-.932-.32-1.734-.87-2.234-1.48-.253-.307-.439-.625-.567-.966a3.24 3.24 0 0 1-.202-1.153c.002-.627.152-1.43.651-2.467s1.353-2.283 2.708-3.685l-.004.004c3.891-4.017 8.154-6.141 11.45-7.267 1.645-.562 3.041-.87 3.996-1.035a17.51 17.51 0 0 1 1.079-.154l.245-.023.042-.003-.08-1.222.064 1.223.016-.001-.08-1.222.064 1.223-.186-3.54-2.754-2.231 2.754 2.231M331.69 61.665s8.75-16.023 23.258-16c15.391.008 10.703 12.82 2.031 11.43-10.796-1.711-16.718-2.133-25.289 4.57"/><path d="M331.69 61.665l3.111 1.699-.993-.543.99.548.003-.005-.993-.543.99.548c.028-.06 2.136-3.811 5.75-7.369 1.804-1.782 3.973-3.509 6.39-4.757 2.422-1.25 5.062-2.032 7.978-2.034h.028l-.015-2.616-.019 2.616h.034l-.015-2.616-.019 2.616.023-3.178-.133 3.176.11.002.023-3.178-.133 3.176.146.003c1.587 0 2.85.159 3.803.393 1.44.352 2.137.856 2.421 1.161.147.157.207.269.246.362a.75.75 0 0 1 .053.284c0 .144-.036.346-.153.59-.172.365-.533.798-1.052 1.116s-1.175.537-1.981.538c-.233 0-.483-.018-.746-.06-3.97-.627-7.411-1.116-10.771-1.119-2.929-.004-5.807.398-8.665 1.434s-5.658 2.664-8.595 4.964l2.184 2.792 3.111 1.699-3.111-1.699 2.185 2.792c2.513-1.966 4.631-3.156 6.634-3.88s3.941-1.009 6.257-1.013c2.641-.003 5.767.412 9.658 1.032a11.87 11.87 0 0 0 1.859.148c2.839.002 5.384-1.062 7.217-2.733.918-.837 1.671-1.828 2.207-2.943s.851-2.357.851-3.658a7.85 7.85 0 0 0-.997-3.835c-.502-.903-1.189-1.72-2.012-2.409-1.236-1.037-2.76-1.792-4.519-2.292s-3.772-.752-6.08-.754l-.002 3.545.148-3.542-.165-.003h-.029l.014 2.301V42.12h-.014l.014 2.301V42.12c-4.282-.002-8.13 1.191-11.39 2.906-4.898 2.582-8.554 6.288-11.051 9.332-2.493 3.051-3.82 5.472-3.896 5.608-.806 1.475-.463 3.316.818 4.402a3.55 3.55 0 0 0 4.478.089l-2.185-2.792m-30.625-28.812s.821-18.242 13.883-24.602c13.828-6.734 15.235 6.828 6.86 9.399-10.493 3.211-15.961 5.437-20.743 15.203"/><path d="M301.065 32.853l3.541.159-1.18-.053 1.18.059v-.006l-1.18-.053 1.18.059c-.002-.066.245-4.368 1.934-9.158.84-2.396 2.034-4.903 3.662-7.087 1.633-2.19 3.668-4.052 6.298-5.335 2.357-1.153 4.1-1.505 5.148-1.499.538.001.894.083 1.12.168.337.135.414.236.509.367.086.133.171.357.172.705.005.466-.18 1.113-.613 1.686s-1.075 1.086-2.069 1.396l.003-.001-7.257 2.448c-3.319 1.305-6.302 2.896-8.92 5.253s-4.785 5.391-6.712 9.333l3.184 1.559 3.541.159-3.541-.159 3.184 1.558c1.102-2.251 2.197-3.972 3.331-5.344 1.708-2.051 3.487-3.383 5.901-4.601 2.407-1.209 5.466-2.237 9.364-3.427l.003-.001c2.404-.734 4.357-2.17 5.666-3.927s2.02-3.825 2.025-5.932c0-1.035-.177-2.084-.563-3.088-.572-1.506-1.661-2.907-3.144-3.841-1.481-.944-3.281-1.404-5.184-1.4-2.499.006-5.209.736-8.252 2.214-3.859 1.877-6.802 4.64-8.984 7.615-3.278 4.475-4.94 9.417-5.849 13.255-.902 3.841-1.031 6.604-1.039 6.759-.076 1.679 1.036 3.178 2.664 3.594s3.322-.367 4.061-1.876l-3.184-1.558M38.854 73.118s-8.75-16.055-23.257-16.016c-15.391.032-10.703 12.836-2.032 11.446 10.836-1.719 16.719-2.125 25.289 4.57"/><path d="M38.854 73.118l3.113-1.696c-.105-.181-2.415-4.43-6.776-8.815-2.185-2.189-4.894-4.42-8.158-6.14-3.257-1.716-7.104-2.912-11.384-2.91h-.001l-.153.002.102 3.543-.008-3.544c-2.051.004-3.867.207-5.483.604-2.414.594-4.427 1.641-5.889 3.187-.727.769-1.299 1.658-1.675 2.604a7.85 7.85 0 0 0-.557 2.911 8.46 8.46 0 0 0 .851 3.658c.805 1.671 2.091 3.07 3.709 4.075s3.588 1.602 5.714 1.6c.613 0 1.235-.049 1.862-.148 3.9-.622 7.026-1.037 9.663-1.033 2.317.004 4.248.293 6.251 1.013s4.119 1.917 6.637 3.882c1.324 1.035 3.193.997 4.475-.089s1.624-2.925.82-4.4l-3.113 1.696 2.183-2.793c-2.938-2.297-5.731-3.929-8.59-4.962s-5.732-1.441-8.663-1.437c-3.357.004-6.798.493-10.774 1.121a4.85 4.85 0 0 1-.751.061c-1.071-.002-1.891-.387-2.445-.888-.275-.248-.471-.523-.586-.765s-.154-.446-.153-.591a.73.73 0 0 1 .102-.387 1.58 1.58 0 0 1 .378-.433c.32-.27.911-.624 1.902-.906s2.361-.488 4.147-.491l.094-.001-.075-2.636v2.637l.075-.001-.075-2.636v2.637h.026c2.958.002 5.632.809 8.083 2.095 3.668 1.919 6.751 4.967 8.851 7.55a37.64 37.64 0 0 1 2.397 3.279 27.28 27.28 0 0 1 .596.956l.138.238.028.049 3.112-1.696 2.183-2.793-2.183 2.793m30.61-28.805s-.805-18.249-13.852-24.601c-13.843-6.742-15.25 6.821-6.851 9.383 10.468 3.195 15.953 5.453 20.703 15.218"/><path d="M69.464 44.313l3.541-.156c-.015-.209-.223-5.047-2.22-10.909-1.004-2.931-2.462-6.128-4.646-9.109-2.179-2.975-5.118-5.739-8.975-7.614-3.05-1.48-5.763-2.211-8.265-2.218-1.271-.001-2.486.198-3.601.615-1.675.616-3.09 1.761-3.984 3.162-.903 1.399-1.305 2.995-1.304 4.542.005 2.11.718 4.178 2.034 5.937s3.272 3.191 5.682 3.922c2.588.79 4.813 1.508 6.716 2.26 2.865 1.134 4.96 2.307 6.769 3.936s3.417 3.803 5.065 7.183c.734 1.511 2.431 2.298 4.059 1.885s2.744-1.913 2.67-3.592l-3.541.156 3.188-1.55c-1.281-2.633-2.657-4.855-4.218-6.751-2.334-2.85-5.098-4.901-8.184-6.44-3.093-1.549-6.489-2.654-10.455-3.868-1.001-.309-1.645-.824-2.081-1.398s-.618-1.217-.614-1.68c0-.227.039-.407.089-.534.083-.193.145-.277.329-.402.186-.115.569-.29 1.381-.293 1.05-.007 2.799.346 5.161 1.502 2.667 1.301 4.721 3.2 6.362 5.433 2.459 3.337 3.894 7.433 4.648 10.68.379 1.621.596 3.025.715 4.004.059.489.094.871.114 1.122l.02.275.003.056 3.542-.156 3.188-1.55-3.188 1.55"/></g></svg>