<?xml version='1.0' encoding='utf-8'?>
<svg xmlns="http://www.w3.org/2000/svg" width="1000" height="1000" viewBox="0 0 264.58332 264.58334" version="1.1" id="svg5"> <defs id="defs2"/> <metadata id="metadata856"> </metadata> <rect style="fill:#f7f7f7;fill-opacity:1;stroke:none;stroke-width:10.5833;stroke-linecap:square;stroke-miterlimit:4;stroke-dasharray:none;stroke-opacity:1;paint-order:stroke markers fill" id="rect15268" width="264.58334" height="264.58334" x="-1.350586e-05" y="0"/> <circle style="fill:#fac832;fill-opacity:1;stroke:none;stroke-width:7.9375;stroke-linecap:round;paint-order:fill markers stroke" id="circle15270" cx="132.29164" cy="132.29172" r="66.145836"/> <path id="path15272" style="fill:none;fill-opacity:1;stroke:#d99800;stroke-width:6.61458;stroke-linecap:round;stroke-miterlimit:4;stroke-dasharray:none;stroke-opacity:1" d="m 109.17103,93.052564 c -1.17454,4.8218 -4.21956,8.969626 -8.26623,11.260016 -4.046653,2.29038 -8.800633,3.93601 -14.214963,2.9444"/> <path id="path15274" style="fill:none;fill-opacity:1;stroke:#d99800;stroke-width:6.61458;stroke-linecap:round;stroke-miterlimit:4;stroke-dasharray:none;stroke-opacity:1" d="m 155.41227,93.052554 c 1.17454,4.82181 4.21956,8.969636 8.26623,11.260016 4.04667,2.29039 8.80066,3.93602 14.215,2.94442"/> <path id="path15276" style="fill:none;fill-opacity:1;stroke:#4d4d4d;stroke-width:6.6146;stroke-linecap:round;stroke-miterlimit:4;stroke-dasharray:none;stroke-opacity:1" d="m 122.36977,167.717 c 4.59119,-3.82479 15.41506,-3.82479 19.84374,0.002"/> <path id="path15278" style="fill:#3d8cf2;fill-opacity:1;stroke:none;stroke-width:6.61458;paint-order:fill markers stroke" d="m 97.234357,188.32908 a 66.145835,66.145835 0 0 0 1.98438,1.24643 66.145835,66.145835 0 0 0 4.373363,2.31149 66.145835,66.145835 0 0 0 4.53358,1.97818 66.145835,66.145835 0 0 0 1.80867,0.63303 v -58.9964 H 97.234357 Z"/> <path id="path15280" style="fill:#3d8cf2;fill-opacity:1;stroke:none;stroke-width:6.61458;paint-order:fill markers stroke" d="m 154.64893,194.49821 a 66.145835,66.145835 0 0 0 1.80868,-0.63303 66.145835,66.145835 0 0 0 4.53357,-1.97818 66.145835,66.145835 0 0 0 4.37338,-2.31149 66.145835,66.145835 0 0 0 1.98437,-1.24643 v -52.82727 h -12.7 z"/> <g id="g15288" transform="matrix(1.0909091,0,0,1.0909091,-9.9940627,-14.621206)" style="stroke-width:0.916667"> <circle style="fill:#4d4d4d;fill-opacity:1;stroke:none;stroke-width:6.06336;paint-order:fill markers stroke" id="circle15282" cx="107.02396" cy="128.819" r="14.552083"/> <ellipse style="fill:#f2f2f2;fill-opacity:1;stroke:none;stroke-width:6.06336;paint-order:fill markers stroke" id="ellipse15284" cx="27.871145" cy="159.41829" rx="9.4552259" ry="7.449573" transform="rotate(-30)"/> <ellipse style="fill:#f2f2f2;fill-opacity:1;stroke:none;stroke-width:6.06336;paint-order:fill markers stroke" id="ellipse15286" cx="29.86306" cy="173.36449" rx="3.4761863" ry="2.7388134" transform="rotate(-30)"/> </g> <g id="g15296" transform="matrix(1.0909091,0,0,1.0909091,41.070517,-14.621206)" style="stroke-width:0.916667"> <circle style="fill:#4d4d4d;fill-opacity:1;stroke:none;stroke-width:6.06336;paint-order:fill markers stroke" id="circle15290" cx="107.02396" cy="128.819" r="14.552083"/> <ellipse style="fill:#f2f2f2;fill-opacity:1;stroke:none;stroke-width:6.06336;paint-order:fill markers stroke" id="ellipse15292" cx="27.871145" cy="159.41829" rx="9.4552259" ry="7.449573" transform="rotate(-30)"/> <ellipse style="fill:#f2f2f2;fill-opacity:1;stroke:none;stroke-width:6.06336;paint-order:fill markers stroke" id="ellipse15294" cx="29.86306" cy="173.36449" rx="3.4761863" ry="2.7388134" transform="rotate(-30)"/> </g> <ellipse style="fill:#3d8cf2;fill-opacity:1;stroke-width:5.29167;paint-order:fill markers stroke" id="ellipse15298" cx="132.29164" cy="194.21371" rx="52.916656" ry="7.9375"/> </svg>